<svg width="725" height="543" viewBox="0 0 725 543" fill="none" xmlns="http://www.w3.org/2000/svg">
<path d="M35.6203 425.588C67.0766 411.557 102.787 413.368 135.783 420.338C170.679 427.716 204.262 440.57 239.475 446.544C258.983 449.848 278.898 451.025 298.541 447.947C299.401 447.811 299.039 446.499 298.179 446.635C261.699 452.292 225.218 443.24 190.322 433.373C156.92 423.914 123.11 413.413 87.9872 413.685C69.7923 413.821 51.6427 416.989 34.9414 424.412C34.1267 424.774 34.8056 425.95 35.6203 425.588Z" fill="#E8E8E8"/>
<path d="M211.776 437.265C254.411 438.125 295.689 426.312 337.375 419.297C349.55 417.26 361.816 415.631 374.172 414.816C375.032 414.771 375.032 413.413 374.172 413.458C331.491 416.264 290.349 429.028 247.984 434.007C235.99 435.41 223.906 436.179 211.821 435.953C210.87 435.908 210.87 437.265 211.776 437.265Z" fill="#E8E8E8"/>
<path d="M411.059 422.058C426.222 418.799 441.927 418.256 457.271 420.61C471.392 422.782 484.925 427.444 498.277 432.423C511.448 437.311 524.529 442.516 538.197 446.001C552.319 449.577 566.666 450.482 581.24 450.482C598.44 450.482 615.775 449.803 632.657 453.605C633.517 453.786 633.879 452.473 633.019 452.292C603.192 445.594 572.279 452.383 542.452 445.594C514.616 439.257 489.18 425 461.027 419.885C444.371 416.853 427.263 417.215 410.743 420.745C409.837 420.926 410.2 422.239 411.059 422.058Z" fill="#E8E8E8"/>
<path d="M163.844 248.03C159.952 246.853 152.303 243.639 155.154 238.208C157.191 234.316 163.256 233.999 167.013 234.135C179.686 234.497 192.359 235.583 205.032 234.542C216.935 233.546 228.296 230.152 239.883 227.436C251.651 224.63 264.097 222.593 275.956 226.033C281.161 227.526 286.004 230.016 291.118 231.736C293.562 232.55 296.097 233.184 298.677 233.456C301.754 233.772 304.832 233.32 307.865 233.184C310.988 233.048 314.201 233.139 316.871 234.995C319.316 236.669 321.352 239.837 319.768 242.779C317.505 247.034 310.897 245.857 307.095 245.042C295.825 242.689 284.465 241.965 273.014 243.504C266.949 244.318 261.02 245.812 255.226 247.668C248.98 249.659 242.915 251.424 236.262 250.519C230.061 249.659 224.132 247.668 217.841 247.441C211.549 247.17 205.303 247.984 199.103 248.799C187.063 250.429 174.209 252.511 162.939 246.672C162.17 246.264 161.491 247.441 162.26 247.849C172.806 253.325 184.71 252.058 196.115 250.564C202.09 249.75 208.11 248.89 214.175 248.754C220.828 248.618 227.029 250.157 233.501 251.424C240.109 252.692 246.083 252.013 252.51 250.021C258.892 248.03 265.184 246.083 271.792 245.088C278.626 244.047 285.551 243.775 292.431 244.273C298.541 244.68 304.379 246.31 310.399 246.989C313.975 247.396 318.546 247.26 320.764 243.911C323.299 240.064 320.583 235.583 317.098 233.456C311.802 230.242 305.239 232.505 299.491 232.143C293.155 231.736 287.316 228.794 281.477 226.531C269.348 221.824 256.946 222.412 244.409 225.082C231.147 227.889 218.248 232.188 204.67 233.275C196.84 233.908 188.919 233.772 181.089 233.456C177.015 233.275 172.897 233.094 168.823 232.913C166.288 232.822 163.799 232.777 161.31 233.275C157.463 234.044 153.072 236.307 153.344 240.878C153.661 245.902 159.454 248.211 163.528 249.433C164.297 249.614 164.659 248.301 163.844 248.03Z" fill="#E8E8E8"/>
<path d="M497.87 81.0623C493.977 80.5192 487.596 79.1161 486.464 74.6805C484.835 68.5251 493.615 66.5788 497.87 65.8094C510.317 63.6821 523.08 65.6284 535.617 65.6284C560.466 65.5831 584.952 60.876 609.664 59.1108C622.021 58.2056 634.467 58.0698 646.778 59.6539C649.584 60.016 652.526 60.2876 655.242 61.1023C656.374 61.4191 657.641 61.9622 658.501 62.7769C660.583 64.8137 658.546 66.6694 656.645 67.6651C651.757 70.245 646.19 71.286 640.713 71.5123C629.76 72.0102 618.852 69.7471 607.899 70.1545C602.785 70.3355 597.761 71.1955 592.918 72.9606C587.26 75.0426 582.01 77.9846 576.307 79.9308C569.699 82.1939 562.729 83.3254 555.713 83.3254C548.607 83.3254 541.592 82.2391 534.576 81.4244C520.365 79.795 506.107 79.8403 491.941 81.7412C491.081 81.877 491.081 83.2349 491.941 83.0991C505.791 81.2434 519.821 81.1076 533.716 82.6917C540.596 83.4612 547.476 84.5474 554.446 84.6832C560.873 84.819 567.345 84.0043 573.546 82.2391C579.883 80.4287 585.676 77.3057 591.786 74.8616C597.715 72.508 603.826 71.467 610.162 71.467C621.839 71.3765 633.562 74.0016 645.239 72.4628C648.091 72.1007 650.852 71.467 653.567 70.4713C655.649 69.7018 658.456 68.7514 659.949 66.9862C662.755 63.5916 658.682 60.6044 655.649 59.7444C649.675 57.9793 642.931 57.6624 636.73 57.3004C629.986 56.893 623.243 56.9383 616.499 57.2551C589.206 58.5677 562.231 64.2705 534.848 64.18C527.063 64.18 519.278 63.4558 511.493 63.4106C504.885 63.3653 497.327 63.5011 491.126 66.081C487.234 67.7104 483.432 71.5123 485.604 75.9931C487.641 80.2024 493.389 81.6507 497.553 82.2391C498.368 82.5107 498.73 81.1981 497.87 81.0623Z" fill="#E8E8E8"/>
<path d="M60.1517 142.843C97.8993 126.459 139.268 141.757 174.073 158.187C191.816 166.56 209.286 175.522 227.798 182.13C245.948 188.602 264.821 193.083 283.967 195.663C322.393 200.868 361.725 198.56 399.518 190.096C439.121 181.225 476.643 165.112 515.929 155.019C556.8 144.518 599.526 142.255 641.211 148.999C646.28 149.814 651.304 150.764 656.328 151.85C657.188 152.031 657.55 150.719 656.69 150.538C616.227 141.938 574.18 141.531 533.626 149.587C493.072 157.644 454.917 174.119 415.133 184.846C376.525 195.256 336.198 199.465 296.323 195.708C276.499 193.852 256.856 190.005 237.846 184.031C218.203 177.875 199.782 168.914 181.27 160.043C147.822 143.975 110.074 127.681 72.2363 137.231C67.846 138.317 63.6368 139.811 59.4727 141.621C58.7033 142.029 59.3822 143.205 60.1517 142.843Z" fill="#E8E8E8"/>
<path d="M215.035 126.64C259.254 151.307 311.893 153.163 360.956 146.283C416.491 138.498 469.989 120.168 525.615 113.017C556.573 109.034 588.165 108.536 618.807 115.325C619.667 115.506 620.029 114.193 619.169 114.012C564.992 102.063 509.411 112.609 456.366 124.965C404.089 137.141 351.225 151.353 297.047 147.867C268.759 146.057 240.607 139.313 215.713 125.463C214.989 125.011 214.31 126.187 215.035 126.64Z" fill="#E8E8E8"/>
<path d="M83.0085 42.1379C121.028 33.0857 161.581 36.6613 197.428 52.2763C215.035 59.9254 231.555 69.8828 248.844 78.1656C266.27 86.4936 284.465 92.2417 303.655 94.8216C325.607 97.7635 347.83 97.2657 369.827 95.8173C370.687 95.7721 370.687 94.4142 369.827 94.4595C349.957 95.7721 329.907 96.3152 310.082 94.2332C289.987 92.1059 270.796 86.8557 252.465 78.3919C235.04 70.2902 218.565 60.3328 201.049 52.4574C183.85 44.582 165.61 39.377 146.826 37.1592C125.418 34.5793 103.602 35.8466 82.6464 40.8253C81.7864 41.0064 82.1485 42.3189 83.0085 42.1379Z" fill="#E8E8E8"/>
<path d="M468.631 316.464C464.648 315.65 458.131 313.613 457.814 308.679C457.633 305.647 460.168 303.429 462.838 302.614C466.051 301.573 469.446 302.524 472.569 303.429C478.272 305.104 484.02 306.462 489.995 306.688C495.562 306.914 501.083 306.099 506.469 304.651C512.263 303.112 517.921 301.03 523.669 299.401C529.734 297.681 535.934 296.776 542.271 296.685C554.356 296.504 566.304 298.677 578.344 299.175C584.364 299.401 590.293 299.084 596.222 298.179C602.649 297.183 609.212 295.689 615.775 296.459C620.482 297.002 628.04 300.17 626.501 306.235C625.144 311.531 617.63 314.518 613.014 316.012C589.84 323.525 565.942 311.033 542.452 314.337C528.919 316.238 516.155 321.941 502.487 323.027C496.241 323.525 489.813 323.118 483.884 320.9C478.453 318.818 473.565 314.292 467.364 315.378C466.504 315.514 466.866 316.826 467.726 316.691C471.438 316.057 474.696 317.822 477.819 319.542C480.354 320.9 482.889 322.167 485.649 322.982C491.307 324.702 497.372 324.928 503.256 324.385C516.201 323.163 528.376 318.048 541.185 315.966C555.306 313.703 569.201 316.962 583.141 318.818C594.502 320.311 606.677 320.673 617.359 315.921C621.432 314.111 626.864 311.214 627.905 306.416C628.855 302.117 625.551 298.677 621.975 296.912C616.68 294.332 610.298 294.83 604.686 295.599C597.851 296.504 591.198 297.953 584.273 298.043C570.785 298.269 557.479 295.508 544.036 295.463C537.609 295.463 531.227 296.187 524.981 297.817C518.78 299.446 512.761 301.709 506.605 303.384C499.001 305.421 491.352 306.054 483.567 304.832C479.675 304.199 476.009 303.112 472.252 302.026C469.446 301.211 466.414 300.532 463.472 301.166C459.081 302.117 455.098 306.281 457.045 310.942C458.81 315.197 464.196 317.053 468.36 317.913C469.084 317.958 469.446 316.645 468.631 316.464Z" fill="#E8E8E8"/>
<path d="M265.546 495.2C282.473 491.126 299.039 485.559 315.016 478.634C323.299 475.013 331.4 470.894 340.226 468.722C348.69 466.595 357.471 465.961 366.206 466.187C376.299 466.414 386.302 467.771 396.259 469.356C397.119 469.491 397.481 468.179 396.621 468.043C379.648 465.373 362.178 463.2 345.114 466.278C336.334 467.862 328.277 471.211 320.221 474.877C311.757 478.725 303.203 482.21 294.422 485.287C284.827 488.637 275.096 491.533 265.184 493.887C264.324 494.068 264.686 495.381 265.546 495.2Z" fill="#161616"/>
<path d="M372.497 466.685C380.101 466.504 387.614 465.418 394.947 463.291C402.415 461.163 409.792 458.176 417.713 458.946C421.741 459.308 425.679 460.439 429.571 461.435C433.645 462.476 437.673 463.517 441.746 464.558C449.576 466.55 457.361 468.541 465.192 470.532C466.051 470.759 466.414 469.446 465.554 469.22C457.452 467.138 449.35 465.101 441.248 463.019C433.826 461.118 426.222 458.584 418.618 457.678C411.15 456.818 404.089 459.127 397.029 461.299C389.017 463.743 380.87 465.146 372.542 465.373C371.637 465.327 371.637 466.685 372.497 466.685Z" fill="#161616"/>
<path d="M451.749 473.701C469.537 469.763 488.229 466.368 506.288 470.532C515.25 472.614 523.669 476.597 532.042 480.263C540.822 484.156 549.648 488.003 558.429 491.896C559.244 492.258 559.923 491.081 559.108 490.719C545.349 484.654 531.725 478.091 517.694 472.705C504.116 467.5 489.994 466.459 475.602 468.088C467.455 469.039 459.353 470.623 451.342 472.433C450.527 472.569 450.889 473.882 451.749 473.701Z" fill="#161616"/>
<path d="M290.937 510.905C295.599 510.09 300.306 509.276 304.968 508.461C309.63 507.646 314.337 506.605 319.044 506.107C323.389 505.655 327.825 506.424 332.124 506.832C336.877 507.33 341.675 507.782 346.427 508.28C347.287 508.371 347.287 507.013 346.427 506.922C341.675 506.424 336.877 505.972 332.124 505.474C327.508 505.021 322.846 504.252 318.184 504.84C308.951 505.972 299.763 508.008 290.575 509.593C289.715 509.774 290.077 511.086 290.937 510.905Z" fill="#161616"/>
<path d="M165.926 306.778C169.026 306.778 171.539 304.266 171.539 301.166C171.539 298.066 169.026 295.554 165.926 295.554C162.827 295.554 160.314 298.066 160.314 301.166C160.314 304.266 162.827 306.778 165.926 306.778Z" fill="#FD1056"/>
<path d="M181.089 319.089C182.714 319.089 184.031 317.772 184.031 316.147C184.031 314.523 182.714 313.205 181.089 313.205C179.464 313.205 178.147 314.523 178.147 316.147C178.147 317.772 179.464 319.089 181.089 319.089Z" fill="#FD1056"/>
<path d="M496.738 31.7278C500.563 31.7278 503.663 28.6274 503.663 24.8029C503.663 20.9784 500.563 17.878 496.738 17.878C492.914 17.878 489.813 20.9784 489.813 24.8029C489.813 28.6274 492.914 31.7278 496.738 31.7278Z" fill="#FD1056"/>
<path d="M512.851 39.558C515.026 39.558 516.789 37.795 516.789 35.6203C516.789 33.4456 515.026 31.6826 512.851 31.6826C510.677 31.6826 508.914 33.4456 508.914 35.6203C508.914 37.795 510.677 39.558 512.851 39.558Z" fill="#FD1056"/>
<path d="M510.226 37.9286C513.851 37.9286 516.789 34.9904 516.789 31.3658C516.789 27.7413 513.851 24.803 510.226 24.803C506.602 24.803 503.663 27.7413 503.663 31.3658C503.663 34.9904 506.602 37.9286 510.226 37.9286Z" fill="#0AE4C3"/>
<path d="M494.521 375.665C499.42 375.665 503.392 371.694 503.392 366.794C503.392 361.895 499.42 357.923 494.521 357.923C489.621 357.923 485.649 361.895 485.649 366.794C485.649 371.694 489.621 375.665 494.521 375.665Z" fill="#0AE4C3"/>
<path d="M172.444 36.1182C175.569 36.1182 178.102 33.5852 178.102 30.4606C178.102 27.336 175.569 24.803 172.444 24.803C169.319 24.803 166.786 27.336 166.786 30.4606C166.786 33.5852 169.319 36.1182 172.444 36.1182Z" fill="#0AE4C3"/>
<path d="M261.97 423.008C265.795 423.008 268.895 419.908 268.895 416.083C268.895 412.259 265.795 409.159 261.97 409.159C258.146 409.159 255.045 412.259 255.045 416.083C255.045 419.908 258.146 423.008 261.97 423.008Z" fill="#0AE4C3"/>
<path d="M311.938 292.748C310.988 292.34 312.074 290.666 312.572 290.439C313.16 290.168 314.337 290.53 314.971 290.711C315.966 291.028 316.826 291.571 317.822 291.842C318.908 292.159 320.221 292.25 321.262 291.752C324.883 289.896 320.583 283.65 325.878 283.65C328.775 283.65 331.219 287.95 333.618 284.736C334.478 283.605 334.84 282.157 335.293 280.799C335.655 279.622 335.972 278.4 336.786 277.449C337.737 276.363 340.633 275.277 340.95 277.63C341.041 278.49 342.444 278.49 342.308 277.63C342.082 276.001 340.905 274.915 339.23 274.824C337.239 274.688 335.791 276.182 334.976 277.811C334.387 278.943 334.116 280.21 333.709 281.432C333.437 282.292 333.075 283.786 332.306 284.329C331.491 284.872 330.857 284.284 330.178 283.876C328.413 282.7 326.286 281.794 324.159 282.564C322.212 283.288 321.443 284.963 321.533 286.954C321.533 287.543 321.714 288.267 321.669 288.855C321.352 290.937 319.949 291.028 318.501 290.711C317.053 290.394 315.831 289.489 314.337 289.217C312.753 288.9 311.169 289.308 310.444 290.892C309.856 292.25 310.218 293.608 311.576 294.151C312.391 294.377 312.753 293.064 311.938 292.748Z" fill="#0AE4C3"/>
<path d="M335.293 294.92C334.614 293.879 334.614 292.566 335.338 291.525C336.379 290.032 337.827 290.258 339.411 290.484C340.588 290.665 342.037 290.892 342.897 289.851C343.485 289.172 343.394 288.357 343.621 287.588C343.938 286.456 344.662 285.46 345.612 284.781C347.604 283.333 350.41 283.107 352.401 284.646C352.899 285.008 353.488 284.781 353.578 284.148C354.121 279.757 358.466 276.499 362.811 277.268C363.671 277.404 364.033 276.091 363.173 275.956C357.878 275.05 352.854 278.852 352.22 284.148C352.628 283.967 352.99 283.831 353.397 283.65C351.541 282.202 349.188 281.84 346.97 282.609C344.435 283.469 343.259 285.144 342.308 287.497C341.856 288.674 341.312 289.398 340 289.217C339.276 289.127 338.597 288.945 337.873 288.9C336.832 288.855 335.926 289.127 335.112 289.805C333.392 291.254 332.939 293.743 334.161 295.644C334.614 296.368 335.791 295.689 335.293 294.92Z" fill="#0AE4C3"/>
<path d="M358.195 47.2071C357.425 46.483 357.652 46.0303 358.828 45.804C359.326 45.1251 359.869 44.9893 360.458 45.442C361.272 45.623 361.816 46.3472 362.404 46.8903C363.128 47.524 363.762 48.2481 364.577 48.746C365.708 49.3797 367.111 49.6512 368.288 49.0628C369.736 48.3387 369.782 46.8903 370.279 45.5325C371.637 41.9116 376.254 41.5495 378.426 44.6273C378.698 44.9893 379.377 45.1251 379.603 44.6273C380.463 42.5905 381.549 40.2822 383.496 39.0602C385.442 37.8381 388.701 37.9739 389.561 40.5085C389.832 41.3232 391.145 40.9611 390.873 40.1464C390.013 37.7023 387.524 36.6161 385.034 37.0234C381.595 37.6118 379.694 41.0516 378.426 43.9483C378.834 43.9483 379.196 43.9483 379.603 43.9483C378.019 41.6853 375.303 40.4633 372.588 41.459C371.456 41.8663 370.415 42.681 369.736 43.722C369.374 44.2652 369.148 44.8536 368.922 45.4872C368.786 45.8946 368.786 46.3924 368.559 46.7545C367.971 47.7503 366.342 48.1576 365.301 47.5692C363.083 46.3472 360.91 42.4547 357.833 44.0389C356.113 44.8988 355.886 47.3429 357.516 48.3839C358.285 48.8365 358.964 47.6597 358.195 47.2071Z" fill="#FD1056"/>
<path d="M387.252 46.845C386.935 42.3189 392.729 43.8125 395.037 44.944C396.214 45.5324 397.662 46.6187 398.93 45.6229C399.337 45.3061 399.518 44.8535 399.699 44.4009C400.378 42.9073 400.831 41.821 402.641 41.2779C405.447 40.4632 408.163 42.2284 410.426 43.6767C411.15 44.1293 411.829 42.9525 411.105 42.4999C408.706 41.0063 405.99 39.3317 403.048 39.8295C402.098 39.9653 401.147 40.3274 400.378 40.9158C399.201 41.7758 398.975 43.2694 397.798 43.9935C396.667 44.6725 396.214 43.9935 395.082 43.4504C394.494 43.1788 393.906 42.9073 393.272 42.681C392.095 42.2736 390.828 42.0926 389.606 42.3642C387.479 42.862 385.759 44.5819 385.894 46.845C385.94 47.7049 387.298 47.7049 387.252 46.845Z" fill="#FD1056"/>
<path d="M518.237 234.316C515.25 227.753 526.565 224.856 527.335 231.736C527.606 234.044 526.339 236.488 523.985 237.122C521.36 237.801 518.554 236.036 517.83 233.501C517.604 232.641 516.291 233.003 516.517 233.863C517.423 237.122 520.998 239.294 524.348 238.434C527.652 237.574 529.281 233.908 528.512 230.74C527.697 227.391 524.212 225.761 520.998 226.621C517.242 227.617 515.476 231.555 517.061 235.085C517.423 235.809 518.599 235.085 518.237 234.316Z" fill="#FD1056"/>
<path d="M526.656 239.521C524.212 239.294 523.307 236.035 524.981 234.406C526.384 233.003 528.783 233.094 530.277 234.27C531.816 235.492 533.309 239.068 531.589 240.788C529.326 243.051 526.565 239.385 525.479 237.755C524.981 237.031 523.804 237.71 524.302 238.434C525.886 240.878 529.507 244.726 532.54 241.738C534.939 239.385 533.219 234.632 530.865 232.958C528.466 231.238 524.529 231.826 523.171 234.632C521.813 237.348 523.804 240.607 526.701 240.878C527.516 240.969 527.516 239.611 526.656 239.521Z" fill="#FD1056"/>
<path d="M115.506 182.628C117.316 182.537 118.267 181.315 119.534 180.184C122.521 177.513 125.961 180.048 127.862 182.673C129.672 185.162 132.298 186.927 134.606 183.94C135.692 182.537 136.235 180.455 137.729 179.459C140.761 177.423 143.341 181.451 145.242 183.216C147.415 185.208 151.896 186.113 152.891 182.401C153.118 181.541 151.805 181.179 151.579 182.039C151.081 183.985 148.727 183.94 147.324 183.126C146.238 182.492 145.469 181.496 144.609 180.636C143.341 179.278 141.938 177.966 140.037 177.604C136.914 177.061 135.511 179.867 134.108 182.13C133.746 182.763 133.293 183.623 132.614 183.985C130.985 184.845 129.808 183.126 128.948 181.994C127.862 180.455 126.64 179.143 124.875 178.328C123.426 177.649 121.707 177.423 120.213 178.056C118.493 178.78 117.407 181.225 115.461 181.315C114.646 181.315 114.646 182.673 115.506 182.628Z" fill="#FD1056"/>
<path d="M147.143 173.304C149.044 175.567 152.439 178.599 155.426 176.11C156.15 175.476 156.557 174.571 157.327 173.938C158.458 173.078 159.952 172.897 161.265 173.304C164.116 174.073 165.791 176.789 167.284 179.097C167.556 179.505 168.235 179.595 168.461 179.097C170.407 174.843 175.612 173.802 179.686 175.431C180.5 175.748 180.863 174.435 180.048 174.119C175.476 172.263 169.457 173.621 167.284 178.373C167.692 178.373 168.054 178.373 168.461 178.373C166.424 175.205 163.844 171.584 159.59 171.72C158.096 171.765 156.738 172.399 155.743 173.485C154.566 174.843 153.57 175.929 151.624 175.341C150.13 174.888 149.044 173.485 148.048 172.308C147.551 171.675 146.6 172.625 147.143 173.304Z" fill="#FD1056"/>
<path d="M228.658 220.647C228.07 219.47 227.391 218.248 226.848 217.026C226.259 215.759 226.531 215.261 227.3 214.175C228.296 212.771 229.835 211.504 231.6 212.455C232.867 213.134 233.682 214.672 234.044 215.985C234.678 218.203 234.135 221.371 231.555 222.095C229.427 222.684 226.667 221.371 226.757 218.927C226.757 218.067 225.399 218.067 225.399 218.927C225.309 221.959 228.341 223.86 231.147 223.544C234.587 223.136 236.036 219.515 235.538 216.438C235.04 213.45 232.279 209.648 228.839 211.052C227.164 211.73 225.897 213.496 225.128 215.08C224.675 216.03 224.766 216.076 225.218 217.026C225.942 218.474 226.667 219.923 227.391 221.326C227.889 222.095 229.065 221.416 228.658 220.647Z" fill="#0AE4C3"/>
<path d="M233.682 229.518C231.962 227.481 229.02 223.498 231.555 220.964C233.365 219.153 236.624 219.832 238.118 221.643C239.656 223.498 239.973 227.119 237.574 228.477C235.538 229.654 232.596 228.522 232.234 226.169C232.098 225.309 230.785 225.671 230.921 226.531C231.464 229.608 235.221 231.057 237.937 229.835C241.241 228.296 241.376 223.725 239.43 221.054C237.574 218.474 233.501 217.569 230.966 219.696C227.3 222.729 230.468 227.708 232.777 230.423C233.275 231.147 234.225 230.197 233.682 229.518Z" fill="#FD1056"/>
<path d="M501.31 137.91C501.355 133.927 506.832 135.104 509.185 135.375C511.222 135.602 513.078 135.33 514.888 134.334C516.879 133.293 518.509 131.664 520.455 130.532C521.722 129.763 523.261 129.084 524.755 129.084C526.339 129.129 527.335 130.08 528.738 130.668C531.997 131.981 534.079 128.948 536.115 126.957C540.144 123.019 545.892 124.648 550.599 126.278C551.414 126.549 551.776 125.237 550.961 124.965C546.752 123.517 541.411 121.933 537.247 124.332C535.255 125.463 534.079 127.545 532.268 128.858C529.688 130.713 527.516 127.771 524.8 127.726C518.962 127.636 515.884 134.38 510 134.063C507.465 133.927 505.021 132.976 502.577 134.108C500.993 134.832 499.997 136.099 499.952 137.865C499.907 138.77 501.264 138.77 501.31 137.91Z" fill="#0AE4C3"/>
<path d="M535.165 136.371C538.062 132.252 543.493 130.261 548.381 131.664C550.508 132.298 552.5 134.017 554.853 133.882C556.8 133.746 557.841 132.162 559.153 130.94C561.28 128.993 564.041 127.409 567.029 127.5C568.839 127.545 570.242 128.224 571.645 129.401C572.098 129.808 572.46 130.17 573.094 130.351C573.999 130.578 574.813 130.17 575.628 129.808C577.031 129.175 578.48 128.631 579.973 128.224C583.051 127.455 586.174 127.319 589.297 127.726C590.157 127.817 590.157 126.459 589.297 126.368C586.31 125.961 583.323 126.052 580.381 126.73C579.068 127.047 577.755 127.455 576.488 127.952C575.492 128.36 574.994 128.631 573.863 128.631C572.641 128.631 572.731 128.45 571.917 127.817C568.07 124.875 562.91 126.233 559.425 128.993C558.474 129.718 557.705 130.713 556.8 131.438C554.627 133.157 552.907 132.071 550.689 131.075C548.788 130.216 546.797 129.808 544.715 129.899C540.415 130.08 536.523 132.207 534.079 135.692C533.49 136.416 534.667 137.095 535.165 136.371Z" fill="#0AE4C3"/>
<path d="M436.723 439.936C437.582 445.367 438.442 450.844 439.257 456.275C421.379 462.069 412.598 465.735 412.961 467.274C413.413 469.175 427.716 467.772 455.868 463.2C454.238 454.601 452.654 446.001 451.025 437.401C446.227 438.216 441.475 439.076 436.723 439.936Z" fill="black"/>
<path d="M398.251 258.078C397.934 264.233 397.482 273.014 397.074 283.65C396.667 294.92 396.441 300.804 396.486 308.046C396.486 311.169 396.622 323.887 398.251 340.271C399.609 354.076 401.736 374.715 409.295 400.106C412.282 410.154 416.899 423.642 424.095 439.031C427.399 439.529 431.292 439.8 435.727 439.619C444.055 439.212 450.799 437.175 455.461 435.274C454.103 430.839 452.202 424.547 450.211 416.989C447.54 406.76 439.846 375.937 436.859 334.523C435.365 313.703 434.822 287.724 437.447 257.851C424.412 257.897 411.332 257.987 398.251 258.078Z" fill="white"/>
<path opacity="0.09" d="M436.315 261.563C435.455 264.822 434.324 269.529 433.102 275.232C429.933 290.303 426.675 311.802 426.991 348.147C427.172 370.506 428.757 401.419 434.55 438.759C436.813 438.533 439.121 438.261 441.52 437.899C446.544 437.13 451.206 436.134 455.461 435.003C453.56 428.847 450.934 419.704 448.219 408.57C438.578 368.876 435.863 335.202 435.138 312.979C434.731 299.763 434.731 282.247 436.315 261.563Z" fill="#606060"/>
<path d="M436.451 259.254C431.925 305.059 434.731 351.541 444.734 396.486C447.585 409.249 450.98 421.832 454.963 434.278C455.234 435.093 456.547 434.731 456.275 433.916C442.335 390.149 435.365 344.254 435.727 298.315C435.817 285.28 436.541 272.199 437.809 259.209C437.899 258.395 436.541 258.395 436.451 259.254Z" fill="#161616"/>
<path d="M396.395 299.854C394.72 336.967 399.925 374.308 411.603 409.566C414.861 419.433 418.663 429.119 422.963 438.578C423.325 439.393 424.502 438.669 424.14 437.899C408.978 404.18 400.061 367.745 397.934 330.857C397.346 320.538 397.3 310.218 397.753 299.854C397.798 298.948 396.44 298.994 396.395 299.854Z" fill="#161616"/>
<path d="M423.506 438.986C425.045 440.706 428.576 440.298 430.658 440.343C433.826 440.389 437.039 440.072 440.162 439.619C443.557 439.121 446.951 438.397 450.301 437.583C451.975 437.175 455.461 437.085 456.32 435.229C456.683 434.46 455.506 433.735 455.144 434.55C454.736 435.501 452.473 435.682 451.613 435.863C450.346 436.179 449.124 436.451 447.857 436.768C445.458 437.311 443.104 437.809 440.705 438.171C438.216 438.578 435.727 438.85 433.237 438.94C431.336 439.031 425.905 439.619 424.502 438.035C423.868 437.356 422.918 438.352 423.506 438.986Z" fill="#161616"/>
<path d="M384.899 257.806C383.586 260.658 381.821 266.089 380.554 270.887C378.969 276.997 378.562 280.663 377.657 286.004C375.982 295.871 374.851 297.545 372.407 308.363C369.827 319.949 368.65 328.866 367.745 335.972C367.021 341.494 365.708 352.764 365.12 367.338C364.848 373.629 364.712 377.34 364.848 382.455C365.21 398.522 367.79 410.969 368.922 415.857C371.954 429.3 376.39 440.796 380.825 450.12C382.862 451.161 385.94 452.473 389.832 453.333C394.63 454.374 400.785 455.732 406.669 452.745C408.299 451.93 412.01 449.667 414.816 444.326C412.644 438.397 409.973 429.979 407.846 419.659C402.596 394.041 404.497 373.765 405.809 361.001C408.253 336.877 413.866 318.773 423.506 287.543C426.765 277.042 429.662 268.533 431.653 262.875C432.332 258.395 433.916 244.952 426.72 239.34C416.174 231.012 391.597 243.368 384.899 257.806Z" fill="white"/>
<path opacity="0.08" d="M425.271 281.885C422.329 286.547 418.256 293.472 414.228 302.207C409.249 312.979 401.917 331.898 397.979 369.601C395.807 390.194 394.358 419.026 397.708 453.831C399.111 453.967 405.085 454.465 410.2 450.346C412.825 448.219 414.182 445.775 414.861 444.236C412.644 438.126 409.792 429.164 407.62 418.075C401.193 385.759 405.221 359.779 408.208 341.675C410.652 326.558 415.405 305.692 425.271 281.885Z" fill="#606060"/>
<path d="M392.005 453.243C393.544 458.765 395.082 464.332 396.621 469.853C372.361 477.231 360.458 481.848 360.865 483.658C361.318 485.74 377.838 484.201 410.426 479.041C409.566 470.17 408.706 461.344 407.891 452.473C402.55 452.7 397.255 452.971 392.005 453.243Z" fill="black"/>
<path d="M384.401 258.349C379.603 270.479 377.159 283.333 374.579 296.097C371.864 309.449 369.238 322.801 367.337 336.289C363.807 361.273 362.721 386.845 367.564 411.739C370.144 425.136 374.489 438.171 380.871 450.21C381.278 450.98 382.455 450.301 382.047 449.531C357.833 403.501 365.165 349.641 375.032 300.804C377.883 286.637 380.418 272.199 385.759 258.711C386.03 257.897 384.718 257.535 384.401 258.349Z" fill="#161616"/>
<path d="M424.683 281.794C409.521 322.212 399.382 365.663 405.266 408.977C406.896 420.926 409.747 432.649 413.911 443.964C414.228 444.779 415.54 444.417 415.224 443.602C400.152 402.913 403.229 358.285 414.545 317.053C417.803 305.24 421.696 293.607 425.996 282.111C426.312 281.297 425 280.98 424.683 281.794Z" fill="#161616"/>
<path d="M381.006 450.165C387.388 453.695 394.72 455.189 401.962 454.238C407.891 453.424 414.771 450.708 415.359 443.874C415.45 443.014 414.092 443.014 414.002 443.874C413.368 450.98 404.768 452.881 398.93 453.152C392.91 453.424 386.981 451.93 381.73 448.988C380.916 448.581 380.237 449.758 381.006 450.165Z" fill="#161616"/>
<path d="M394.223 139.856C393 141.304 391.281 143.522 389.651 146.464C384.084 156.241 383.722 165.836 383.631 174.254C383.541 186.52 383.45 192.676 384.763 206.028C385.985 218.52 386.302 236.443 381.912 259.3C385.849 262.196 391.597 265.546 399.111 267.311C420.745 272.38 438.669 259.752 442.063 257.308C437.763 232.098 435.41 211.911 434.052 197.745C433.192 188.783 430.024 175.748 423.733 149.632C421.832 141.667 419.885 134.063 414.002 131.89C405.855 128.812 395.852 138.272 394.223 139.856Z" fill="#FD1056"/>
<path opacity="0.1" d="M413.775 132.524C414.499 135.466 415.54 139.901 416.581 145.378C417.939 152.439 419.75 163.12 421.017 179.007C422.33 195.391 423.823 226.123 424.276 265.862C427.353 264.957 431.065 263.599 435.003 261.427C437.628 259.979 439.891 258.44 441.792 256.991C441.475 253.506 440.886 248.211 439.936 241.829C438.714 233.818 437.492 228.251 436.904 225.49C435.455 218.338 433.826 207.657 433.645 192.811C431.789 184.936 430.386 178.599 429.435 174.39C426.81 162.441 426.041 158.051 424.049 150.809C422.058 143.522 419.976 137.729 418.663 134.244C417.034 133.61 415.405 133.067 413.775 132.524Z" fill="#606060"/>
<path d="M394.177 144.201C394.585 145.016 395.263 145.287 396.757 146.011C398.024 146.645 399.246 147.415 400.514 147.958C404.406 149.632 408.977 157.055 409.702 158.232C412.463 162.713 415.676 167.963 417.532 175.567C418.03 177.558 419.161 182.718 417.849 200.144C416.446 218.022 414.635 220.511 416.038 229.427C417.079 235.9 418.392 243.639 424.774 247.849C430.703 251.741 437.537 250.383 438.94 250.112C447.54 248.437 452.428 241.784 457.18 235.311C464.422 225.49 467.183 215.668 468.36 209.965C468.903 207.295 468.812 199.465 468.677 183.85C468.496 167.737 468.224 162.17 464.015 157.462C461.163 154.294 457.678 152.801 455.279 152.031C455.46 151.035 455.506 149.542 454.691 148.275C453.152 145.921 449.486 145.966 447.132 146.011C437.039 146.283 429.526 153.072 429.164 153.389C422.873 159.228 421.017 166.379 420.428 169.366C419.161 163.754 417.079 159.454 415.45 156.693C414.047 154.294 411.965 151.85 407.755 146.871C404.451 142.979 402.867 141.485 400.378 140.671C399.835 140.49 395.716 139.268 394.358 141.123C393.725 141.983 393.725 143.296 394.177 144.201Z" fill="white"/>
<path opacity="0.11" d="M393.86 142.526C394.132 142.028 397.164 143.16 397.481 143.296C401.962 145.016 405.945 148.591 411.059 156.874C413.685 161.129 416.989 167.148 419.795 174.978C421.786 172.942 423.461 171.267 424.774 170C424.774 170 429.616 165.338 437.447 160.812C438.216 160.359 439.167 159.816 439.845 160.223C441.249 160.993 439.755 164.749 440.162 168.235C440.479 170.86 442.018 174.481 447.857 178.509C447.992 179.278 448.038 180.364 447.404 181.089C446.137 182.492 442.878 181.36 441.203 180.772C438.488 179.821 433.237 177.332 427.037 170.045C426.448 172.399 425.679 175.748 425.09 179.867C424.547 183.442 423.054 195.346 425.543 210.644C426.539 216.709 428.394 224.811 432.196 234.044C433.871 234.768 435.998 235.447 438.533 235.854C443.828 236.669 448.219 235.628 450.753 234.813C449.26 235.538 447.223 236.76 445.458 238.887C443.331 241.467 443.285 243.413 441.52 245.812C440.343 247.441 438.216 249.478 434.278 250.926C433.056 250.79 431.201 250.474 429.164 249.568C422.963 246.808 420.157 240.969 418.89 238.253C417.215 234.587 414.635 227.164 417.079 202.044C418.482 187.697 420.021 183.216 417.668 175.024C415.857 168.732 412.734 163.527 411.648 161.762C409.702 158.594 406.217 152.936 399.88 147.731C396.893 145.197 393.589 143.115 393.86 142.526Z" fill="#606060"/>
<path d="M444.326 152.665C443.512 153.751 442.471 155.335 441.656 157.417C441.203 158.639 440.117 161.491 440.389 165.112C440.886 172.308 446.046 176.698 446.997 177.468C447.63 177.966 448.173 178.373 448.536 178.599C447.992 180.455 447.359 183.216 447.132 186.611C446.77 191.408 446.408 196.794 449.214 198.378C451.025 199.374 453.741 198.695 455.234 197.247C455.596 196.885 456.637 195.753 456.909 190.639C457.226 184.574 455.958 182.039 457.769 180.274C458.538 179.459 459.851 178.961 460.982 178.464C462.25 177.92 463.381 177.649 464.196 177.468C463.698 181.179 463.336 184.483 463.064 187.154C462.747 190.458 462.612 192.132 463.743 193.173C464.784 194.124 466.504 194.305 467.817 193.716C469.537 192.947 470.08 190.82 471.03 186.565C471.8 183.216 472.433 180.41 472.026 176.608C471.8 174.662 471.392 173.077 471.03 171.991C470.94 171.222 470.713 170.09 470.351 168.778C469.582 166.153 468.858 165.383 468.405 163.708C467.726 161.31 468.496 160.133 468.677 157.417C468.858 155.29 468.677 152.257 467.138 148.456C466.549 148.501 465.327 148.591 464.06 149.451C462.521 150.447 461.888 151.895 461.661 152.393C460.484 152.122 458.357 151.85 455.913 152.529C451.704 153.661 449.486 156.784 448.898 157.734C450.074 155.154 449.079 152.62 447.495 151.986C446.137 151.398 444.507 152.574 444.326 152.665Z" fill="black"/>
<path d="M449.441 166.696C449.893 165.836 452.156 163.935 452.926 165.519C453.288 166.288 454.465 165.61 454.103 164.84C453.605 163.799 452.383 163.482 451.296 163.709C449.984 163.935 448.898 164.84 448.264 166.017C447.857 166.786 449.033 167.465 449.441 166.696Z" fill="white"/>
<path d="M462.702 163.211C462.974 162.622 463.245 161.943 463.698 161.491C464.151 161.038 465.508 160.54 465.554 161.581C465.599 162.441 466.957 162.441 466.911 161.581C466.821 160.269 465.689 159.409 464.377 159.59C462.883 159.861 462.114 161.219 461.525 162.487C461.163 163.301 462.34 164.025 462.702 163.211Z" fill="white"/>
<path d="M463.064 167.51C463.064 167.556 463.064 167.601 463.064 167.646C462.974 167.737 462.883 167.827 462.838 167.873C462.612 168.008 462.25 167.873 462.295 167.601C462.295 167.601 462.295 167.465 462.34 167.51L462.204 167.646C462.521 167.646 462.838 167.646 463.155 167.646C463.11 167.601 463.11 167.601 463.064 167.556C463.11 167.601 463.11 167.601 463.11 167.601C463.064 167.556 463.11 167.556 463.11 167.646C463.155 167.918 463.019 168.099 462.657 168.235C462.521 168.189 462.431 168.189 462.295 168.144C462.114 168.054 462.159 167.782 462.204 167.646C462.25 167.601 462.204 167.601 462.159 167.691C462.204 167.646 462.204 167.646 462.159 167.691C461.842 167.918 461.706 168.28 461.933 168.642C462.114 168.914 462.566 169.095 462.883 168.868C463.2 168.642 463.517 168.325 463.562 167.873C463.562 167.375 463.2 166.922 462.702 166.922C462.204 166.922 461.842 167.239 461.797 167.737C461.752 168.099 461.978 168.416 462.204 168.642C462.476 168.914 462.883 168.868 463.155 168.642C463.743 168.189 463.879 167.239 463.2 166.786C462.883 166.605 462.476 166.56 462.159 166.741C461.752 166.967 461.706 167.51 461.797 167.918C461.842 168.28 462.295 168.461 462.612 168.37C462.974 168.235 463.11 167.873 463.064 167.51Z" fill="white"/>
<path d="M455.823 168.914C454.51 169.683 452.745 169.321 451.885 168.054C451.387 167.329 450.21 168.008 450.708 168.732C452.021 170.588 454.51 171.222 456.547 170.09C457.271 169.638 456.592 168.461 455.823 168.914Z" fill="white"/>
<path d="M454.827 171.855C453.831 172.625 452.971 173.621 452.383 174.752C451.975 175.522 453.152 176.2 453.559 175.431C454.103 174.39 454.872 173.53 455.823 172.806C456.094 172.58 456.049 172.082 455.823 171.855C455.506 171.584 455.098 171.629 454.827 171.855Z" fill="white"/>
<path d="M465.825 166.877C466.73 165.836 467.409 164.659 467.862 163.346C468.134 162.532 466.821 162.17 466.549 162.984C466.187 164.071 465.599 165.066 464.875 165.926C464.332 166.605 465.282 167.556 465.825 166.877Z" fill="white"/>
<path d="M465.916 168.597C467.002 168.37 468.269 168.099 469.129 169.004C469.718 169.638 470.668 168.687 470.08 168.054C468.858 166.741 467.093 166.967 465.508 167.329C464.694 167.465 465.056 168.778 465.916 168.597Z" fill="white"/>
<path d="M393.634 143.16C395.716 139.901 400.65 141.848 403.139 143.477C406.126 145.378 408.389 148.229 410.426 151.081C414.545 156.829 418.211 163.075 419.569 170.09C419.75 170.95 421.062 170.588 420.881 169.728C419.297 161.355 414.409 153.299 408.887 146.872C405.673 143.16 396.576 136.145 392.457 142.527C392.005 143.205 393.181 143.93 393.634 143.16Z" fill="#161616"/>
<path d="M396.44 146.238C407.303 152.348 413.413 163.799 416.491 175.476C416.717 176.336 418.03 175.974 417.803 175.114C414.635 163.12 408.253 151.307 397.119 145.061C396.35 144.608 395.671 145.785 396.44 146.238Z" fill="#161616"/>
<path d="M420.881 169.502C422.013 161.491 427.127 154.792 434.143 150.945C437.763 148.954 441.792 147.731 445.91 147.143C447.857 146.872 450.12 146.6 452.021 147.324C454.103 148.094 456.094 151.398 453.469 152.891C452.7 153.299 453.378 154.475 454.148 154.068C457.045 152.439 456.32 148.275 453.786 146.69C449.848 144.201 443.331 145.966 439.302 147.324C429.345 150.538 421.107 158.594 419.614 169.23C419.433 170 420.745 170.362 420.881 169.502Z" fill="#161616"/>
<path d="M423.914 171.539C426.131 168.959 428.938 166.786 431.653 164.75C434.278 162.758 437.084 161.129 440.343 160.404C441.203 160.223 440.841 158.911 439.981 159.092C436.632 159.861 433.69 161.536 430.974 163.573C428.168 165.7 425.271 167.918 422.963 170.588C422.375 171.222 423.325 172.218 423.914 171.539Z" fill="#161616"/>
<path d="M440.524 160.54C441.475 158.368 442.697 156.286 444.19 154.43C444.462 154.113 444.779 153.57 445.141 153.344C445.458 152.755 445.865 152.71 446.453 153.253C447.178 153.253 447.494 153.525 447.494 154.158C447.992 155.109 448.038 156.738 448.219 157.825C448.4 158.685 449.712 158.322 449.531 157.463C449.169 155.743 448.717 149.587 445.458 151.262C444.19 151.895 443.24 153.48 442.425 154.566C441.203 156.24 440.207 158.006 439.348 159.861C438.985 160.631 440.162 161.355 440.524 160.54Z" fill="#161616"/>
<path d="M449.26 158.232C451.568 155.245 456.275 151.126 460.303 153.344C461.073 153.751 461.752 152.574 460.982 152.167C456.32 149.678 451.07 153.751 448.264 157.281C447.766 157.96 448.717 158.911 449.26 158.232Z" fill="#161616"/>
<path d="M461.616 153.117C462.25 152.122 465.192 148.546 466.459 149.497C467.138 149.994 467.274 151.76 467.455 152.574C467.726 153.842 467.817 155.109 467.862 156.421C467.907 157.281 469.265 157.281 469.22 156.421C469.175 154.611 468.948 152.846 468.496 151.081C468.224 150.085 467.998 148.184 466.821 147.867C465.735 147.596 464.241 148.637 463.426 149.225C462.204 150.085 461.254 151.171 460.484 152.438C459.987 153.163 461.163 153.842 461.616 153.117Z" fill="#161616"/>
<path d="M425.679 169.321C428.802 172.353 432.106 175.16 435.636 177.694C439.121 180.184 442.516 181.949 446.906 181.722C447.766 181.677 447.766 180.319 446.906 180.365C442.425 180.591 439.121 178.599 435.636 176.065C432.423 173.711 429.435 171.131 426.584 168.37C425.996 167.782 425.045 168.733 425.679 169.321Z" fill="#161616"/>
<path d="M416.536 173.983C421.469 195.889 408.615 219.832 419.252 240.788C421.243 244.726 424.276 248.301 428.44 250.066C432.513 251.786 437.22 251.65 441.43 250.293C450.753 247.305 456.773 238.661 461.39 230.514C464.332 225.399 466.776 219.923 468.224 214.174C468.948 211.323 469.401 208.336 469.537 205.394C469.672 201.999 469.22 198.605 469.356 195.21C469.401 194.35 468.043 194.35 467.998 195.21C467.817 200.732 468.541 205.982 467.455 211.459C466.504 216.347 464.739 221.099 462.521 225.535C458.402 233.863 452.835 243.232 444.281 247.622C439.845 249.885 434.369 250.745 429.616 248.98C424.955 247.26 421.877 243.141 419.885 238.751C415.631 229.201 416.129 218.338 417.26 208.2C418.528 196.704 420.519 185.072 417.939 173.575C417.622 172.806 416.31 173.123 416.536 173.983Z" fill="#161616"/>
<path d="M436.677 219.289C434.143 223.725 432.468 228.522 431.744 233.591C431.608 234.451 432.92 234.813 433.056 233.954C433.78 228.975 435.365 224.313 437.854 219.968C438.307 219.244 437.13 218.565 436.677 219.289Z" fill="#161616"/>
<path d="M437.537 219.787C444.236 219.198 451.296 217.931 457.995 218.655C458.855 218.746 458.855 217.388 457.995 217.297C451.296 216.528 444.236 217.841 437.537 218.429C436.677 218.52 436.677 219.877 437.537 219.787Z" fill="#161616"/>
<path d="M432.423 234.813C435.727 236.76 439.574 236.579 443.285 236.488C447.178 236.352 451.07 235.9 454.465 233.863C455.234 233.41 454.51 232.234 453.786 232.686C450.572 234.632 446.951 234.995 443.285 235.13C439.845 235.266 436.225 235.492 433.102 233.682C432.377 233.229 431.698 234.406 432.423 234.813Z" fill="#161616"/>
<path d="M457.361 218.338C456.501 223.317 455.189 228.115 453.424 232.822C453.107 233.637 454.419 233.999 454.736 233.184C456.547 228.477 457.859 223.634 458.674 218.701C458.81 217.841 457.497 217.478 457.361 218.338Z" fill="#161616"/>
<path d="M436.315 221.643C438.533 226.531 444.824 227.753 449.667 227.798C450.527 227.798 450.527 226.44 449.667 226.44C445.322 226.35 439.483 225.354 437.492 220.918C437.13 220.149 435.953 220.873 436.315 221.643Z" fill="#161616"/>
<path d="M446.091 226.033C445.956 227.164 445.82 228.296 445.684 229.382C445.594 230.242 446.951 230.242 447.042 229.382C447.178 228.251 447.313 227.119 447.449 226.033C447.54 225.173 446.182 225.173 446.091 226.033Z" fill="#161616"/>
<path d="M448.671 226.033C448.536 227.164 448.4 228.296 448.309 229.427C448.219 230.287 449.577 230.287 449.667 229.427C449.803 228.296 449.939 227.164 450.029 226.033C450.12 225.173 448.762 225.173 448.671 226.033Z" fill="#161616"/>
<path d="M449.848 227.934C453.062 227.21 455.732 225.218 457.407 222.412C457.859 221.643 456.682 220.964 456.23 221.733C454.691 224.268 452.337 225.942 449.486 226.621C448.626 226.848 448.988 228.16 449.848 227.934Z" fill="#161616"/>
<path d="M439.936 158.096C438.578 166.107 440.072 175.657 448.264 179.324C449.033 179.686 449.758 178.509 448.943 178.147C441.294 174.707 439.981 165.881 441.249 158.458C441.384 157.598 440.072 157.236 439.936 158.096Z" fill="#161616"/>
<path d="M467.771 155.924C467.862 158.504 467.817 161.129 468.179 163.663C468.541 166.424 471.03 169.502 469.718 172.263C469.356 173.032 470.532 173.756 470.894 172.942C472.071 170.452 471.03 168.37 470.17 165.926C469.039 162.803 469.31 159.182 469.175 155.878C469.084 155.018 467.726 155.018 467.771 155.924Z" fill="#161616"/>
<path d="M451.975 178.373C453.967 177.332 456.23 178.418 456.682 180.591C456.728 180.817 457.045 180.727 456.999 180.5C456.456 178.102 453.967 176.925 451.794 178.056C451.613 178.192 451.794 178.509 451.975 178.373Z" fill="white"/>
<path d="M455.415 180.681C455.732 181.043 455.958 181.451 456.094 181.903C456.185 182.13 456.501 182.039 456.411 181.813C456.23 181.315 455.958 180.862 455.641 180.455C455.506 180.274 455.234 180.546 455.415 180.681Z" fill="white"/>
<path d="M464.513 177.513C464.92 175.657 466.097 174.119 467.817 173.259C467.998 173.168 467.862 172.851 467.636 172.987C465.825 173.847 464.603 175.476 464.196 177.423C464.15 177.649 464.467 177.739 464.513 177.513Z" fill="white"/>
<path d="M384.808 81.56C381.685 83.1442 379.06 86.1314 377.883 87.444C374.987 90.748 373.493 93.8257 371.864 97.2656C370.506 100.072 368.922 104.055 367.654 109.033C369.419 109.35 371.185 109.622 372.95 109.939C372.859 111.659 372.859 114.193 373.538 117.18C374.172 119.896 375.213 124.241 378.834 127.274C383.812 131.528 390.421 130.487 391.643 130.306C391.733 132.433 392.186 135.466 393.906 138.589C394.358 139.358 394.811 140.082 395.263 140.716C397.753 139.992 401.6 138.498 405.357 135.421C414.952 127.681 416.265 116.139 416.672 112.79C417.26 107.63 418.392 97.8992 412.01 89.8428C405.357 81.5148 392.729 77.5771 384.808 81.56Z" fill="white"/>
<path d="M375.53 90.9743C376.797 89.0733 379.241 86.2671 382.002 84.3209C386.438 81.1979 388.429 82.5105 390.692 79.7496C392.322 77.7581 393.363 74.4993 392.14 72.9604C390.194 70.5163 383.269 73.4583 382.364 73.8657C380.373 74.7256 373.81 77.4865 371.185 84.4567C369.012 90.2954 370.46 96.6771 371.456 96.8129C371.728 96.8582 371.909 96.4056 373.357 94.1878C374.036 93.0563 374.806 92.0153 375.53 90.9743Z" fill="#3C7298"/>
<path d="M385.397 77.3507C385.035 78.5275 384.491 80.881 386.302 85.4976C389.515 93.7804 397.029 101.203 400.785 99.8454C401.6 99.5285 402.46 98.7138 404.089 98.6233C404.497 98.6233 406.126 98.5328 407.393 99.5285C409.385 101.113 409.475 104.552 408.163 106.77C407.937 107.178 406.714 109.033 404.859 109.169C403.229 109.305 402.686 108.038 401.374 107.947C398.16 107.766 395.399 114.827 395.037 115.777C394.313 117.588 392.548 122.295 393.815 128.314C394.087 129.627 394.72 132.388 396.667 135.239C400.876 141.35 407.937 142.843 410.562 143.386C413.142 143.929 422.963 145.966 430.612 139.63C431.834 138.634 435.863 135.194 436.949 129.355C438.804 119.489 430.522 112.111 430.024 111.704C429.662 106.589 428.44 98.4423 424.14 89.5259C421.424 83.8683 418.89 78.6633 413.142 74.7256C405.583 69.6111 394.585 68.1627 388.836 72.5983C388.248 73.1414 386.302 74.6803 385.397 77.3507Z" fill="#3C7298"/>
<path d="M376.797 125.916C376.118 126.595 374.127 128.677 373.765 131.935C373.267 136.461 376.299 139.584 376.933 140.218C380.237 143.613 385.759 144.971 389.742 142.934C390.058 142.798 393.544 140.942 393.679 138.272C393.725 137.095 393.091 136.507 392.186 133.882C391.597 132.162 391.235 130.759 390.964 129.808C389.742 130.215 387.66 130.759 385.08 130.397C380.463 129.808 377.612 126.821 376.797 125.916Z" fill="#3C7298"/>
<path opacity="0.12" d="M385.849 81.3337C385.894 82.7368 386.076 84.8188 387.026 87.0366C387.66 88.5302 388.293 89.4354 388.791 90.1596C390.692 93.0563 391.326 95.772 392.322 98.8045C393.906 103.512 393.634 107.449 393.317 112.337C393.046 116.411 392.141 122.612 389.199 129.808C390.421 130.17 392.186 130.894 394.087 132.162C397.572 134.515 399.156 137.321 400.152 138.634C402.188 141.304 406.715 144.111 417.622 143.93C416.536 142.843 414.997 141.214 413.323 139.222C409.385 134.606 405.945 130.578 403.908 125.689C402.732 122.883 400.921 117.135 402.324 108.807C403.592 109.441 405.085 109.396 406.262 108.626C407.484 107.811 408.253 106.182 407.846 104.688C407.348 102.968 405.266 101.792 403.139 102.335C402.686 101.203 401.962 99.5739 400.785 97.8087C398.93 95.0478 396.983 93.3279 396.259 92.6942C393.951 90.7027 390.602 87.3082 385.849 81.3337Z" fill="#606060"/>
<path opacity="0.14" d="M368.152 108.219C368.197 107.494 370.506 106.906 372.452 107.042C374.172 107.178 376.209 107.947 376.163 108.626C376.118 109.26 374.217 109.758 372.814 109.803C370.642 109.893 368.152 108.943 368.152 108.219Z" fill="#606060"/>
<path d="M373.765 91.3816C371.185 97.0392 368.876 102.787 366.885 108.671C366.749 109.033 367.021 109.395 367.337 109.486C369.103 110.165 370.868 110.482 372.724 110.436C373.583 110.436 373.583 109.079 372.724 109.079C370.958 109.079 369.329 108.762 367.7 108.173C367.835 108.445 368.016 108.717 368.152 108.988C370.098 103.195 372.316 97.5371 374.896 92.0153C375.303 91.2911 374.127 90.5669 373.765 91.3816Z" fill="#161616"/>
<path d="M372.542 110.708C372.905 116.547 373.448 123.019 377.793 127.409C381.957 131.664 387.976 131.302 393.453 130.668C394.313 130.577 394.313 129.22 393.453 129.31C388.384 129.899 382.636 130.396 378.743 126.459C374.67 122.34 374.262 116.185 373.9 110.708C373.855 109.848 372.497 109.848 372.542 110.708Z" fill="#161616"/>
<path d="M390.783 130.804C391.371 133.972 392.457 137.005 393.996 139.811C394.403 140.58 395.58 139.901 395.173 139.132C393.679 136.371 392.684 133.52 392.095 130.442C391.959 129.582 390.647 129.944 390.783 130.804Z" fill="#161616"/>
<path d="M373.448 117.633C375.665 119.579 378.97 118.674 379.829 115.822C380.101 114.963 378.788 114.646 378.517 115.46C377.974 117.271 375.847 117.95 374.443 116.637C373.765 116.094 372.814 117.045 373.448 117.633Z" fill="#161616"/>
<path d="M377.612 115.777C378.336 115.958 378.879 116.366 379.332 116.909C379.558 117.18 380.056 117.135 380.282 116.909C380.554 116.637 380.508 116.23 380.282 115.958C379.694 115.234 378.879 114.691 377.974 114.465C377.159 114.238 376.797 115.551 377.612 115.777Z" fill="#161616"/>
<path d="M379.648 98.8497C380.011 96.9487 382.364 97.3108 383.631 97.9897C384.718 98.5781 385.487 99.5286 385.94 100.66C386.257 101.475 387.569 101.113 387.252 100.298C386.528 98.3518 385.034 96.8129 382.952 96.2698C381.052 95.7719 378.788 96.3603 378.381 98.4876C378.2 99.3476 379.513 99.7096 379.648 98.8497Z" fill="#161616"/>
<path d="M379.603 90.8385C381.64 87.444 385.623 90.0691 386.438 92.9205C386.664 93.7805 387.976 93.4184 387.75 92.5585C387.162 90.4765 385.713 88.5302 383.496 87.9871C381.504 87.5345 379.467 88.3945 378.426 90.1144C377.974 90.9291 379.151 91.608 379.603 90.8385Z" fill="#161616"/>
<path d="M380.961 106.544C381.821 106.544 381.821 105.186 380.961 105.186C380.101 105.186 380.056 106.544 380.961 106.544Z" fill="#161616"/>
<path d="M383.541 104.507C383.586 104.507 383.677 104.507 383.722 104.507C384.084 104.507 384.401 104.19 384.401 103.828C384.401 103.466 384.084 103.149 383.722 103.149C383.677 103.149 383.586 103.149 383.541 103.149C383.179 103.149 382.862 103.466 382.862 103.828C382.862 104.236 383.179 104.507 383.541 104.507Z" fill="#161616"/>
<path d="M383.586 106.816C383.586 106.861 383.586 106.906 383.586 106.951C383.586 107.811 384.944 107.811 384.944 106.951C384.944 106.906 384.944 106.861 384.944 106.816C384.944 105.956 383.586 105.956 383.586 106.816C383.586 106.861 383.586 106.906 383.586 106.951C383.586 107.811 384.944 107.811 384.944 106.951C384.944 106.906 384.944 106.861 384.944 106.816C384.944 105.956 383.586 105.956 383.586 106.816Z" fill="#161616"/>
<path d="M403.32 99.8907C404.542 98.1255 406.624 99.2571 407.348 100.705C407.937 101.837 407.937 103.195 407.891 104.417C407.71 107.495 405.13 109.667 402.143 107.766C401.419 107.268 400.74 108.445 401.464 108.943C403.229 110.12 405.492 110.255 407.258 108.898C409.068 107.495 409.385 105.186 409.249 103.014C409.113 100.932 408.299 98.6234 406.126 97.854C404.587 97.3108 403.048 97.8992 402.143 99.2118C401.691 99.8907 402.867 100.57 403.32 99.8907Z" fill="#161616"/>
<path d="M281.569 74.047C280.618 74.047 279.668 74.0923 278.763 74.0923C277.224 77.0795 276.364 79.7952 275.866 81.7866C274.418 87.6253 274.78 92.4682 275.051 94.8218C275.232 96.4059 275.504 97.7185 275.73 98.6237C276.545 98.6237 277.359 98.6237 278.174 98.6237C278.491 99.71 278.808 100.796 279.125 101.882C286.774 101.837 293.065 101.837 297.455 101.882C324.069 102.109 342.626 103.15 346.925 103.376C352.312 103.693 356.702 104.01 359.417 104.191C359.508 102.516 359.961 101.928 360.368 101.747C361.092 101.43 361.726 102.199 362.676 102.018C363.672 101.837 364.306 100.796 364.713 99.8458C365.528 100.253 367.021 100.796 368.787 100.525C369.194 100.479 369.556 100.344 369.873 100.253C370.642 98.7142 371.412 97.1754 372.181 95.6365C371.095 95.2744 369.556 94.9576 367.7 94.9576C366.659 94.9576 365.754 95.0934 364.985 95.2291C364.894 95.0028 364.17 92.9661 362.269 92.5135C361.681 92.3777 361.183 92.423 360.775 92.5135C360.504 92.0156 360.232 91.5177 359.961 91.0199C358.874 90.8388 357.2 90.5673 355.208 90.2052C339.05 87.2632 327.78 83.6876 319.181 81.1077C310.943 78.6184 298.949 75.2238 283.56 71.4672C282.927 72.3271 282.248 73.1871 281.569 74.047Z" fill="white"/>
<path opacity="0.07" d="M275.186 91.6079C275.594 91.5174 276.046 92.5584 276.544 92.4226C277.359 92.2416 277.178 89.3901 277.359 87.2629C277.495 85.2261 278.083 82.2842 280.075 78.7086C281.387 79.2517 283.379 80.1116 285.777 81.1527C294.422 84.9093 300.397 87.806 302.207 88.6207C314.156 94.1878 327.282 96.6771 330.586 97.3108C338.099 98.7591 348.509 100.026 361.001 99.4833C360.458 100.977 359.915 102.471 359.372 103.964C357.29 103.919 354.257 103.919 350.546 103.828C334.614 103.512 323.48 103.014 317.098 102.742C308.091 102.38 295.192 102.018 278.898 102.063C278.717 100.841 278.536 99.6191 278.355 98.3971C277.314 98.5781 276.273 98.7591 275.232 98.9402C274.553 93.2826 274.734 91.6984 275.186 91.6079Z" fill="#606060"/>
<path d="M282.519 71.5122C276.861 80.2475 275.277 91.1101 278.174 101.113C278.4 101.973 279.712 101.611 279.486 100.751C276.68 91.0649 278.219 80.6549 283.695 72.1911C284.193 71.4217 283.016 70.7427 282.519 71.5122Z" fill="#161616"/>
<path d="M283.695 72.8247C309.177 79.2518 334.614 85.6788 360.096 92.0606C360.956 92.2869 361.318 90.9743 360.458 90.748C334.976 84.321 309.539 77.8939 284.057 71.5121C283.243 71.2858 282.881 72.5984 283.695 72.8247Z" fill="#161616"/>
<path d="M279.124 102.606C305.692 102.38 332.26 103.014 358.783 104.462C359.643 104.507 359.643 103.149 358.783 103.104C332.26 101.656 305.692 101.022 279.124 101.249C278.264 101.249 278.264 102.606 279.124 102.606Z" fill="#161616"/>
<path d="M359.688 91.5627C361.499 95.591 361.092 100.162 358.602 103.828C358.104 104.553 359.281 105.232 359.779 104.507C362.54 100.434 362.902 95.3646 360.865 90.8838C360.503 90.1144 359.326 90.7933 359.688 91.5627Z" fill="#161616"/>
<path d="M361.046 93.3278C361.544 93.6899 361.906 93.5541 362.495 93.6899C363.626 94.0067 364.079 95.0477 364.305 96.134C364.667 98.1255 364.169 102.335 361.227 101.158C360.413 100.841 360.051 102.154 360.865 102.471C363.852 103.647 365.799 100.524 365.799 97.8992C365.799 96.4508 365.618 94.8214 364.803 93.5994C364.531 93.192 364.169 92.7847 363.717 92.5584C363.128 92.2868 362.314 92.4679 361.816 92.1058C361.001 91.6532 360.322 92.8299 361.046 93.3278Z" fill="#161616"/>
<path d="M365.029 95.8173C367.338 95.6815 369.646 95.7268 371.909 96.0436C372.769 96.1341 372.769 94.7763 371.909 94.6858C369.601 94.4142 367.338 94.3237 365.029 94.4595C364.169 94.55 364.169 95.9078 365.029 95.8173Z" fill="#161616"/>
<path d="M364.848 100.796C366.704 101.113 368.56 101.249 370.415 101.067C371.275 100.977 371.275 99.6191 370.415 99.7097C368.65 99.8454 366.93 99.8002 365.21 99.4834C364.35 99.3476 363.988 100.615 364.848 100.796Z" fill="#161616"/>
<path d="M281.749 73.6847C277.359 71.1501 276.137 79.0707 275.548 81.5601C274.191 87.3082 273.557 93.2374 275.232 98.9855C275.322 99.2571 275.594 99.4834 275.865 99.4834C276.454 99.4834 277.087 99.4834 277.676 99.4834C278.536 99.4834 278.536 98.1256 277.676 98.1256C277.087 98.1256 276.454 98.1256 275.865 98.1256C276.092 98.3066 276.318 98.4424 276.499 98.6235C275.322 94.4594 275.322 90.2502 276.001 85.9957C276.318 84.0947 276.725 82.1937 277.223 80.338C277.54 79.116 278.536 73.3679 281.025 74.8615C281.84 75.3141 282.519 74.1373 281.749 73.6847Z" fill="#161616"/>
<path d="M330.677 83.4164C329.862 82.4207 328.504 82.5565 328.323 82.5565C326.83 82.647 325.381 84.0048 323.797 87.3089C320.719 93.6001 320.584 99.8914 320.584 100.887C320.538 105.232 320.946 112.293 324.023 120.711C324.295 124.242 324.883 129.175 326.196 134.923C328.504 145.243 330.948 156.105 339.367 165.746C342.535 169.412 348.781 176.518 359.644 179.098C371.004 181.814 380.237 177.785 382.5 176.744C384.492 175.794 390.059 172.988 394.766 167.059C397.618 163.483 400.922 159.591 400.378 154.793C400.152 152.711 399.247 150.946 397.889 148.14C396.531 145.333 395.807 143.93 394.359 143.387C392.367 142.618 390.24 143.976 387.886 145.333C383.904 147.596 383.541 149.769 379.242 152.032C378.11 152.62 376.979 153.028 374.716 153.752C371.14 154.929 367.61 156.105 364.351 156.332C357.245 156.83 351.542 152.756 349.913 151.579C343.893 147.28 341.539 141.531 340 137.775C336.561 129.356 336.832 121.617 337.421 117.091C339.548 116.728 340.86 115.868 341.494 115.371C343.893 113.515 344.481 110.935 345.386 106.952C345.975 104.463 346.246 103.15 345.613 102.652C344.3 101.657 340.272 104.915 339.367 105.685C339.548 102.607 340 100.118 340.453 98.3525C341.041 95.999 341.358 94.7769 342.173 93.8264C343.757 91.9707 345.613 92.1518 346.246 90.3866C346.609 89.4361 346.563 88.1236 345.794 87.3541C344.889 86.4489 342.942 86.4942 341.268 87.8067C340.725 86.63 339.638 85.9058 338.462 85.8605C337.285 85.8153 336.515 86.5394 336.289 86.7205C336.425 85.4984 335.882 84.3669 334.976 83.9143C333.754 83.2806 331.808 84.0048 331.084 85.8605C331.129 85.6342 331.446 84.3669 330.677 83.4164Z" fill="white"/>
<path opacity="0.12" d="M328.323 82.5565C327.237 84.4575 325.879 87.2637 324.974 90.9298C322.982 98.8957 324.612 105.549 325.336 108.763C333.121 141.939 329.726 142.754 335.157 150.538C337.149 153.345 350.818 172.173 371.185 169.684C388.249 167.602 397.301 152.077 398.478 149.995C399.156 151.806 399.971 154.883 399.428 158.55C398.613 163.936 395.264 167.33 394.042 168.597C392.865 169.774 391.417 170.815 388.475 172.852C385.85 174.708 383.27 176.337 382.138 176.925C376.752 179.958 368.424 180.682 362.631 179.913C346.88 177.831 337.421 162.895 333.483 156.694C324.476 142.527 323.571 128.18 323.661 121.028C322.801 118.132 321.941 115.19 321.081 112.293C320.493 107.812 320.448 104.101 320.538 101.521C320.765 95.0485 320.946 90.2056 324.25 86.0869C325.698 84.2764 327.282 83.1902 328.323 82.5565Z" fill="#606060"/>
<path d="M389.606 172.172C396.757 168.778 401.555 161.672 400.378 153.616C399.699 148.727 395.761 140.309 389.47 143.296C386.664 144.654 384.356 147.143 381.776 148.908C378.2 151.352 374.081 153.253 369.963 154.566C364.712 156.241 358.874 156.603 353.804 154.068C350.093 152.212 347.196 149.18 344.979 145.74C340.09 138.182 337.556 129.265 338.144 120.258C338.189 119.398 336.832 119.398 336.786 120.258C336.288 127.862 337.963 135.104 341.312 141.893C344.254 147.958 348.554 153.661 355.072 156.105C362.992 159.047 371.637 156.06 378.789 152.303C382.002 150.583 384.763 148.365 387.66 146.147C390.285 144.111 392.91 143.115 395.58 145.831C398.884 149.18 399.88 155.019 398.884 159.454C397.662 164.75 393.725 168.733 388.927 170.996C388.157 171.358 388.836 172.535 389.606 172.172Z" fill="#161616"/>
<path d="M338.054 120.847C337.465 118.357 339.231 117.724 340.86 116.547C341.81 115.868 342.535 114.917 343.213 113.967C344.933 111.478 346.291 108.581 346.653 105.548C346.834 104.055 347.151 101.701 345.114 101.611C342.716 101.52 341.72 104.553 339.457 104.779C338.597 104.869 338.597 106.227 339.457 106.137C341.177 105.956 342.037 104.869 343.349 103.874C344.119 103.285 344.979 102.606 345.386 103.919C345.612 104.643 345.25 106.001 345.069 106.725C344.752 108.264 344.073 109.758 343.349 111.161C342.67 112.428 341.901 113.741 340.86 114.782C339.909 115.777 338.597 116.004 337.556 116.818C336.153 117.905 336.379 119.76 336.741 121.254C336.967 122.069 338.28 121.706 338.054 120.847Z" fill="#161616"/>
<path d="M322.258 113.695C321.352 107.857 321.262 101.882 322.167 96.0436C322.529 93.69 322.982 91.2912 323.797 89.0282C324.294 87.6251 324.973 85.9957 325.969 84.8642C327.327 83.3705 329.997 82.6011 330.721 85.1357C330.948 85.9957 332.26 85.6336 332.034 84.7736C331.4 82.6011 329.318 81.4243 327.146 82.2843C324.385 83.4158 323.072 86.8104 322.212 89.3902C319.678 97.2204 319.678 106.001 320.9 114.057C321.081 114.917 322.393 114.555 322.258 113.695Z" fill="#161616"/>
<path d="M328.82 90.3408C329.907 87.6704 332.984 82.2843 336.334 85.9505C336.922 86.5841 337.873 85.6337 337.284 85C335.745 83.3253 333.528 83.0538 331.581 84.1853C329.409 85.4073 328.413 87.8062 327.508 90.024C327.191 90.7934 328.504 91.1555 328.82 90.3408Z" fill="#161616"/>
<path d="M334.523 91.4723C334.569 89.7524 335.248 87.8515 336.922 87.0368C338.325 86.3579 340 86.6747 340.95 87.8967C341.494 88.5756 342.444 87.6252 341.901 86.9462C340.588 85.3169 338.235 84.9095 336.379 85.7695C334.207 86.8105 333.211 89.164 333.166 91.4723C333.12 92.3323 334.478 92.3323 334.523 91.4723Z" fill="#161616"/>
<path d="M338.461 91.9249C339.276 88.8924 342.67 86.1315 345.612 88.5756C346.291 89.1187 347.242 88.1682 346.563 87.6251C342.806 84.5473 338.28 87.444 337.148 91.5628C336.922 92.4227 338.235 92.7848 338.461 91.9249Z" fill="#161616"/>
<path d="M345.341 88.3492C346.789 90.386 343.576 91.6533 342.444 92.6038C341.494 93.3732 340.95 94.3689 340.543 95.5005C339.457 98.6235 338.959 102.018 338.687 105.277C338.597 106.137 339.955 106.137 340.045 105.277C340.271 102.878 340.634 100.479 341.222 98.1256C341.403 97.3562 341.584 96.5867 341.856 95.8173C342.444 94.2332 343.304 93.6448 344.617 92.6943C346.246 91.5175 347.966 89.6165 346.517 87.5798C346.02 86.9462 344.843 87.6251 345.341 88.3492Z" fill="#161616"/>
<path d="M320.583 112.338C321.307 115.415 322.212 118.448 323.344 121.435C323.661 122.25 324.973 121.888 324.656 121.073C323.525 118.086 322.62 115.053 321.896 111.975C321.715 111.116 320.402 111.478 320.583 112.338Z" fill="#161616"/>
<path d="M323.118 122.295C324.837 137.865 328.685 153.842 339.14 165.972C347.468 175.612 360.684 182.945 373.719 180.546C379.875 179.414 385.487 176.336 389.968 172.037C390.602 171.448 389.651 170.453 389.017 171.086C380.056 179.686 367.292 181.949 355.932 176.834C343.711 171.267 335.157 160.812 330.314 148.456C327.055 140.082 325.426 131.211 324.43 122.34C324.385 121.435 323.027 121.435 323.118 122.295Z" fill="#161616"/>
</svg>
