<svg width="818" height="773" viewBox="0 0 818 773" fill="none" xmlns="http://www.w3.org/2000/svg">
<g opacity="0.05" clip-path="url(#clip0)">
<rect width="582.36" height="582.36" transform="translate(0 314.446) rotate(-37.9887)" fill="#1D1D1D"/>
<path d="M257.827 174.654C153.303 257.634 135.677 411.046 218.657 515.569C301.637 620.093 455.049 637.72 559.572 554.74C593.78 527.582 618.544 492.432 634.98 454.598C639.956 441.353 632.804 428.441 621.46 421.957C608.215 416.981 595.304 424.133 588.819 435.477C549.795 534.618 437.06 583.84 337.919 544.816C238.778 505.792 189.556 393.057 228.58 293.916C267.604 194.775 380.339 145.553 479.48 184.577C510.888 196.821 539.612 217.392 560.734 243.998L572.804 259.202C587.891 278.206 584.758 305.479 565.753 320.567C546.749 335.654 519.476 332.52 504.388 313.516L439.513 231.797C430.461 220.395 416.824 218.828 405.421 227.88C395.919 235.424 392.844 247.16 398.487 258.171C339.356 261.74 291.787 314.995 295.356 374.126C298.924 433.257 352.18 480.825 411.311 477.257C467.032 473.297 510.017 429.877 512.875 374.939C561.72 385.732 609.956 356.733 622.258 309.788C628.801 282.906 623.608 252.949 605.503 230.144L594.942 216.841C515.763 109.3 362.35 91.6735 257.827 174.654ZM446.418 412.207C419.812 433.329 382.311 429.021 361.189 402.415C340.067 375.809 344.375 338.308 370.981 317.186C397.587 296.064 435.088 300.372 456.21 326.978C477.333 353.584 473.024 391.085 446.418 412.207Z" fill="#FD1056"/>
</g>
<defs>
<clipPath id="clip0">
<rect width="582.36" height="582.36" fill="white" transform="translate(0 314.446) rotate(-37.9887)"/>
</clipPath>
</defs>
</svg>
