<svg width="114" height="107" viewBox="0 0 114 107" fill="none" xmlns="http://www.w3.org/2000/svg">
<path d="M10.0533 30C10.0533 28.1591 8.56092 26.6667 6.71997 26.6667C4.87903 26.6667 3.38664 28.1591 3.38664 30L10.0533 30ZM3.38664 91.6667C3.38664 93.5076 4.87902 95 6.71997 95C8.56092 95 10.0533 93.5076 10.0533 91.6667L3.38664 91.6667ZM3.38664 30L3.38664 91.6667L10.0533 91.6667L10.0533 30L3.38664 30Z" fill="#0AE4C3"/>
<path d="M16.921 90.9989C16.5522 92.8026 17.7154 94.5637 19.519 94.9325C21.3226 95.3013 23.0837 94.1381 23.4525 92.3345L16.921 90.9989ZM20.1868 10C18.3458 10 16.8534 11.4924 16.8534 13.3334C16.8534 15.1743 18.3458 16.6667 20.1868 16.6667V10ZM86.0878 87.6978L89.3457 86.993L86.0878 87.6978ZM65.6818 34.9247L62.4132 34.271L65.6818 34.9247ZM74.6559 34.8545L71.3979 35.5593L74.6559 34.8545ZM49.9744 69.0746L46.7491 69.9163L49.9744 69.0746ZM31.9147 34.3103L28.6489 33.6426L31.9147 34.3103ZM23.4525 92.3345L35.1805 34.9781L28.6489 33.6426L16.921 90.9989L23.4525 92.3345ZM37.6146 34.9129L46.7491 69.9163L53.1997 68.233L44.0653 33.2295L37.6146 34.9129ZM62.1721 69.4699L68.9504 35.5784L62.4132 34.271L55.6349 68.1625L62.1721 69.4699ZM71.3979 35.5593L82.8298 88.4027L89.3457 86.993L77.9138 34.1496L71.3979 35.5593ZM91.4567 10H20.1868V16.6667H91.4567V10ZM99.3734 86.6336V56.6667H92.7067V86.6336H99.3734ZM99.3734 56.6667V17.9167H92.7067V56.6667H99.3734ZM91.4567 16.6667C92.1471 16.6667 92.7067 17.2264 92.7067 17.9167H99.3734C99.3734 13.5444 95.829 10 91.4567 10V16.6667ZM91.007 95C95.6277 95 99.3734 91.2543 99.3734 86.6336H92.7067C92.7067 87.5724 91.9458 88.3334 91.007 88.3334V95ZM82.8298 88.4027C83.6626 92.2525 87.0681 95 91.007 95V88.3334C90.2068 88.3334 89.5149 87.7752 89.3457 86.993L82.8298 88.4027ZM68.9504 35.5784C69.0364 35.1485 69.2143 34.9431 69.3703 34.824C69.5575 34.681 69.8363 34.5762 70.1664 34.5736C70.4965 34.571 70.7769 34.6715 70.9663 34.8115C71.1241 34.9281 71.3052 35.1307 71.3979 35.5593L77.9138 34.1496C76.0987 25.7591 64.0968 25.853 62.4132 34.271L68.9504 35.5784ZM46.7491 69.9163C48.8703 78.0452 60.5245 77.708 62.1721 69.4699L55.6349 68.1625C55.5519 68.5778 55.3795 68.7839 55.2234 68.9062C55.0387 69.0508 54.7667 69.1575 54.4454 69.1668C54.1241 69.1761 53.8463 69.0853 53.6536 68.9516C53.4906 68.8385 53.3066 68.6428 53.1997 68.233L46.7491 69.9163ZM35.1805 34.9781C35.265 34.5646 35.4377 34.3592 35.5944 34.2373C35.7794 34.0933 36.0512 33.9875 36.3717 33.9789C36.6921 33.9704 36.9692 34.0614 37.1617 34.1953C37.3246 34.3086 37.5081 34.5045 37.6146 34.9129L44.0653 33.2295C41.9486 25.1185 30.3282 25.4299 28.6489 33.6426L35.1805 34.9781Z" fill="#0AE4C3"/>
<rect y="10" width="13.3333" height="13.3333" rx="6.66667" fill="#FD1056"/>
</svg>
