<svg width="23" height="22" viewBox="0 0 23 22" fill="none" xmlns="http://www.w3.org/2000/svg">
<path d="M2.01066 6C2.01066 5.63181 1.71218 5.33333 1.34399 5.33333C0.975805 5.33333 0.677328 5.63181 0.677328 6L2.01066 6ZM0.677328 18.3333C0.677328 18.7015 0.975805 19 1.34399 19C1.71218 19 2.01066 18.7015 2.01066 18.3333L0.677328 18.3333ZM0.677328 6L0.677328 18.3333L2.01066 18.3333L2.01066 6L0.677328 6Z" fill="#0AE4C3"/>
<path d="M3.38417 18.1997C3.31041 18.5605 3.54304 18.9127 3.90377 18.9864C4.2645 19.0602 4.61672 18.8276 4.69048 18.4668L3.38417 18.1997ZM4.03732 1.99996C3.66913 1.99996 3.37066 2.29844 3.37066 2.66663C3.37066 3.03482 3.66913 3.33329 4.03732 3.33329V1.99996ZM9.99485 13.8149L9.34978 13.9832L9.99485 13.8149ZM6.38291 6.86201L5.72976 6.72846L6.38291 6.86201ZM4.69048 18.4668L7.03607 6.99557L5.72976 6.72846L3.38417 18.1997L4.69048 18.4668ZM7.5229 6.98253L9.34978 13.9832L10.6399 13.6465L8.81302 6.64586L7.5229 6.98253ZM12.4344 13.8939L13.7901 7.11564L12.4826 6.85415L11.127 13.6325L12.4344 13.8939ZM14.2796 7.1118L16.5659 17.6805L17.8691 17.3986L15.5827 6.82988L14.2796 7.1118ZM18.2913 1.99996H4.03732V3.33329H18.2913V1.99996ZM19.8747 17.3267V11.3333H18.5413V17.3267H19.8747ZM19.8747 11.3333V3.58329H18.5413V11.3333H19.8747ZM18.2913 3.33329C18.4294 3.33329 18.5413 3.44522 18.5413 3.58329H19.8747C19.8747 2.70884 19.1658 1.99996 18.2913 1.99996V3.33329ZM18.2014 19C19.1255 19 19.8747 18.2508 19.8747 17.3267H18.5413C18.5413 17.5144 18.3891 17.6666 18.2014 17.6666V19ZM16.5659 17.6805C16.7325 18.4505 17.4136 19 18.2014 19V17.6666C18.0413 17.6666 17.903 17.555 17.8691 17.3986L16.5659 17.6805ZM13.7901 7.11564C13.8073 7.02965 13.8428 6.98857 13.874 6.96475C13.9115 6.93616 13.9672 6.91519 14.0332 6.91467C14.0993 6.91416 14.1553 6.93425 14.1932 6.96225C14.2248 6.98558 14.261 7.0261 14.2796 7.1118L15.5827 6.82988C15.2197 5.15177 12.8193 5.17057 12.4826 6.85415L13.7901 7.11564ZM9.34978 13.9832C9.77404 15.609 12.1049 15.5415 12.4344 13.8939L11.127 13.6325C11.1103 13.7155 11.0759 13.7567 11.0446 13.7812C11.0077 13.8101 10.9533 13.8315 10.889 13.8333C10.8248 13.8352 10.7692 13.817 10.7307 13.7903C10.6981 13.7677 10.6613 13.7285 10.6399 13.6465L9.34978 13.9832ZM7.03607 6.99557C7.05298 6.91287 7.08751 6.87179 7.11884 6.84741C7.15586 6.8186 7.21021 6.79746 7.2743 6.79574C7.33839 6.79402 7.3938 6.81223 7.4323 6.83901C7.4649 6.86168 7.50158 6.90085 7.5229 6.98253L8.81302 6.64586C8.3897 5.02367 6.06562 5.08592 5.72976 6.72846L7.03607 6.99557Z" fill="#0AE4C3"/>
<rect y="2" width="2.66667" height="2.66667" rx="1.33333" fill="#FD1056"/>
</svg>
