<svg width="34" height="32" viewBox="0 0 34 32" fill="none" xmlns="http://www.w3.org/2000/svg">
<path d="M3.01599 9C3.01599 8.44772 2.56828 8 2.01599 8C1.46371 8 1.01599 8.44772 1.01599 9L3.01599 9ZM1.01599 27.5C1.01599 28.0523 1.46371 28.5 2.01599 28.5C2.56828 28.5 3.01599 28.0523 3.01599 27.5L1.01599 27.5ZM1.01599 9L1.01599 27.5L3.01599 27.5L3.01599 9L1.01599 9Z" fill="#0AE4C3"/>
<path d="M5.07627 27.2997C4.96563 27.8408 5.31458 28.3691 5.85567 28.4797C6.39676 28.5904 6.92509 28.2414 7.03573 27.7003L5.07627 27.2997ZM6.056 3C5.50372 3 5.056 3.44772 5.056 4C5.056 4.55228 5.50372 5 6.056 5V3ZM22.3967 10.4563L23.3741 10.2449L22.3967 10.4563ZM14.9923 20.7224L14.0247 20.9749L14.9923 20.7224ZM7.03573 27.7003L10.5541 10.4934L8.59465 10.0928L5.07627 27.2997L7.03573 27.7003ZM11.2844 10.4738L14.0247 20.9749L15.9599 20.4699L13.2196 9.96884L11.2844 10.4738ZM18.6516 20.841L20.6851 10.6735L18.7239 10.2813L16.6904 20.4487L18.6516 20.841ZM21.4193 10.6678L24.8489 26.5208L26.8037 26.0979L23.3741 10.2449L21.4193 10.6678ZM27.437 3H6.056V5H27.437V3ZM29.812 25.9901V17H27.812V25.9901H29.812ZM29.812 17V5.375H27.812V17H29.812ZM27.437 5C27.6441 5 27.812 5.16789 27.812 5.375H29.812C29.812 4.06332 28.7487 3 27.437 3V5ZM27.3021 28.5C28.6883 28.5 29.812 27.3763 29.812 25.9901H27.812C27.812 26.2717 27.5837 26.5 27.3021 26.5V28.5ZM24.8489 26.5208C25.0988 27.6758 26.1204 28.5 27.3021 28.5V26.5C27.062 26.5 26.8544 26.3325 26.8037 26.0979L24.8489 26.5208ZM20.6851 10.6735C20.7109 10.5445 20.7643 10.4829 20.811 10.4472C20.8672 10.4043 20.9509 10.3728 21.0499 10.3721C21.1489 10.3713 21.233 10.4014 21.2899 10.4434C21.3372 10.4784 21.3915 10.5392 21.4193 10.6678L23.3741 10.2449C22.8296 7.72774 19.229 7.75588 18.7239 10.2813L20.6851 10.6735ZM14.0247 20.9749C14.6611 23.4136 18.1573 23.3124 18.6516 20.841L16.6904 20.4487C16.6655 20.5733 16.6138 20.6352 16.567 20.6718C16.5116 20.7152 16.43 20.7473 16.3336 20.75C16.2372 20.7528 16.1539 20.7256 16.096 20.6855C16.0472 20.6516 15.992 20.5928 15.9599 20.4699L14.0247 20.9749ZM10.5541 10.4934C10.5795 10.3694 10.6313 10.3077 10.6783 10.2712C10.7338 10.228 10.8153 10.1962 10.9115 10.1937C11.0076 10.1911 11.0907 10.2184 11.1485 10.2586C11.1974 10.2926 11.2524 10.3513 11.2844 10.4738L13.2196 9.96884C12.5846 7.53555 9.09844 7.62896 8.59465 10.0928L10.5541 10.4934Z" fill="#0AE4C3"/>
<rect y="3" width="4" height="4" rx="2" fill="#FD1056"/>
</svg>
