<svg width="46" height="43" viewBox="0 0 46 43" fill="none" xmlns="http://www.w3.org/2000/svg">
<path d="M4.02132 12C4.02132 11.2636 3.42437 10.6667 2.68799 10.6667C1.95161 10.6667 1.35466 11.2636 1.35466 12L4.02132 12ZM1.35466 36.6667C1.35466 37.403 1.95161 38 2.68799 38C3.42437 38 4.02132 37.403 4.02132 36.6667L1.35466 36.6667ZM1.35466 12L1.35466 36.6667L4.02132 36.6667L4.02132 12L1.35466 12Z" fill="#0AE4C3"/>
<path d="M6.76837 36.3996C6.62085 37.1211 7.08612 37.8255 7.80757 37.973C8.52902 38.1205 9.23346 37.6553 9.38098 36.9338L6.76837 36.3996ZM8.07468 4.00004C7.3383 4.00004 6.74134 4.59699 6.74134 5.33337C6.74134 6.06975 7.3383 6.66671 8.07468 6.66671V4.00004ZM19.9897 27.6299L18.6996 27.9666L19.9897 27.6299ZM12.7659 13.7241L11.4596 13.457L12.7659 13.7241ZM9.38098 36.9338L14.0722 13.9913L11.4596 13.457L6.76837 36.3996L9.38098 36.9338ZM15.0458 13.9652L18.6996 27.9666L21.2799 27.2932L17.6261 13.2918L15.0458 13.9652ZM24.8688 27.788L27.5801 14.2314L24.9653 13.7084L22.2539 27.265L24.8688 27.788ZM28.5591 14.2237L33.1319 35.3611L35.7383 34.7972L31.1655 13.6599L28.5591 14.2237ZM36.5827 4.00004H8.07468V6.66671H36.5827V4.00004ZM39.7493 34.6535V22.6667H37.0827V34.6535H39.7493ZM39.7493 22.6667V7.16671H37.0827V22.6667H39.7493ZM36.5827 6.66671C36.8588 6.66671 37.0827 6.89057 37.0827 7.16671H39.7493C39.7493 5.41781 38.3316 4.00004 36.5827 4.00004V6.66671ZM36.4028 38C38.251 38 39.7493 36.5017 39.7493 34.6535H37.0827C37.0827 35.029 36.7783 35.3334 36.4028 35.3334V38ZM33.1319 35.3611C33.465 36.901 34.8272 38 36.4028 38V35.3334C36.0827 35.3334 35.8059 35.1101 35.7383 34.7972L33.1319 35.3611ZM27.5801 14.2314C27.6145 14.0594 27.6857 13.9773 27.7481 13.9296C27.823 13.8724 27.9345 13.8305 28.0665 13.8295C28.1986 13.8284 28.3107 13.8686 28.3865 13.9246C28.4496 13.9713 28.522 14.0523 28.5591 14.2237L31.1655 13.6599C30.4394 10.3037 25.6387 10.3413 24.9653 13.7084L27.5801 14.2314ZM18.6996 27.9666C19.5481 31.2181 24.2098 31.0832 24.8688 27.788L22.2539 27.265C22.2207 27.4312 22.1518 27.5136 22.0893 27.5625C22.0154 27.6204 21.9066 27.663 21.7781 27.6668C21.6496 27.6705 21.5385 27.6342 21.4614 27.5807C21.3962 27.5355 21.3226 27.4571 21.2799 27.2932L18.6996 27.9666ZM14.0722 13.9913C14.106 13.8259 14.1751 13.7437 14.2377 13.6949C14.3117 13.6373 14.4205 13.595 14.5486 13.5916C14.6768 13.5882 14.7876 13.6246 14.8646 13.6781C14.9298 13.7235 15.0032 13.8018 15.0458 13.9652L17.6261 13.2918C16.7794 10.0475 12.1313 10.172 11.4596 13.457L14.0722 13.9913Z" fill="#0AE4C3"/>
<rect y="4" width="5.33333" height="5.33333" rx="2.66667" fill="#FD1056"/>
</svg>
