<svg width="57" height="54" viewBox="0 0 57 54" fill="none" xmlns="http://www.w3.org/2000/svg">
<path d="M5.02665 15C5.02665 14.0795 4.28046 13.3333 3.35999 13.3333C2.43951 13.3333 1.69332 14.0795 1.69332 15L5.02665 15ZM1.69332 45.8333C1.69332 46.7538 2.43951 47.5 3.35999 47.5C4.28046 47.5 5.02665 46.7538 5.02665 45.8333L1.69332 45.8333ZM1.69332 15L1.69332 45.8333L5.02665 45.8333L5.02665 15L1.69332 15Z" fill="#0AE4C3"/>
<path d="M8.4605 45.4994C8.2761 46.4012 8.85769 47.2818 9.7595 47.4662C10.6613 47.6506 11.5419 47.069 11.7263 46.1672L8.4605 45.4994ZM10.0934 4.99996C9.17291 4.99996 8.42672 5.74615 8.42672 6.66663C8.42672 7.5871 9.17291 8.33329 10.0934 8.33329V4.99996ZM43.0439 43.8489L44.6729 43.4965L43.0439 43.8489ZM32.8409 17.4623L31.2066 17.1354L32.8409 17.4623ZM37.3279 17.4272L35.6989 17.7796L37.3279 17.4272ZM24.9872 34.5373L23.3745 34.9581L24.9872 34.5373ZM15.9574 17.1551L14.3245 16.8212L15.9574 17.1551ZM11.7263 46.1672L17.5902 17.489L14.3245 16.8212L8.4605 45.4994L11.7263 46.1672ZM18.8073 17.4564L23.3745 34.9581L26.5999 34.1164L22.0326 16.6147L18.8073 17.4564ZM31.0861 34.7349L34.4752 17.7891L31.2066 17.1354L27.8175 34.0812L31.0861 34.7349ZM35.6989 17.7796L41.4149 44.2013L44.6729 43.4965L38.9569 17.0748L35.6989 17.7796ZM45.7284 4.99996H10.0934V8.33329H45.7284V4.99996ZM49.6867 43.3168V28.3333H46.3534V43.3168H49.6867ZM49.6867 28.3333V8.95829H46.3534V28.3333H49.6867ZM45.7284 8.33329C46.0736 8.33329 46.3534 8.61311 46.3534 8.95829H49.6867C49.6867 6.77216 47.9145 4.99996 45.7284 4.99996V8.33329ZM45.5035 47.5C47.8138 47.5 49.6867 45.6271 49.6867 43.3168H46.3534C46.3534 43.7861 45.9729 44.1666 45.5035 44.1666V47.5ZM41.4149 44.2013C41.8313 46.1262 43.534 47.5 45.5035 47.5V44.1666C45.1034 44.1666 44.7575 43.8875 44.6729 43.4965L41.4149 44.2013ZM34.4752 17.7891C34.5182 17.5742 34.6071 17.4715 34.6851 17.4119C34.7787 17.3405 34.9181 17.288 35.0832 17.2867C35.2482 17.2854 35.3884 17.3357 35.4832 17.4057C35.5621 17.464 35.6526 17.5653 35.6989 17.7796L38.9569 17.0748C38.0493 12.8795 32.0484 12.9265 31.2066 17.1354L34.4752 17.7891ZM23.3745 34.9581C24.4352 39.0225 30.2623 38.8539 31.0861 34.7349L27.8175 34.0812C27.7759 34.2888 27.6898 34.3919 27.6117 34.453C27.5193 34.5253 27.3833 34.5787 27.2227 34.5834C27.062 34.588 26.9232 34.5426 26.8268 34.4757C26.7453 34.4192 26.6533 34.3213 26.5999 34.1164L23.3745 34.9581ZM17.5902 17.489C17.6325 17.2822 17.7189 17.1795 17.7972 17.1186C17.8897 17.0466 18.0256 16.9937 18.1858 16.9894C18.346 16.9851 18.4846 17.0306 18.5808 17.0976C18.6623 17.1543 18.754 17.2522 18.8073 17.4564L22.0326 16.6147C20.9743 12.5592 15.1641 12.7149 14.3245 16.8212L17.5902 17.489Z" fill="#0AE4C3"/>
<rect y="5" width="6.66667" height="6.66667" rx="3.33333" fill="#FD1056"/>
</svg>
