<svg width="68" height="64" viewBox="0 0 68 64" fill="none" xmlns="http://www.w3.org/2000/svg">
<path d="M6.03198 18C6.03198 16.8954 5.13655 16 4.03198 16C2.92742 16 2.03198 16.8954 2.03198 18L6.03198 18ZM2.03198 55C2.03198 56.1046 2.92741 57 4.03198 57C5.13655 57 6.03198 56.1046 6.03198 55L2.03198 55ZM2.03198 18L2.03198 55L6.03198 55L6.03198 18L2.03198 18Z" fill="#0AE4C3"/>
<path d="M10.1526 54.5993C9.93133 55.6815 10.6292 56.7382 11.7114 56.9595C12.7936 57.1807 13.8502 56.4828 14.0715 55.4007L10.1526 54.5993ZM12.1121 6C11.0075 6 10.1121 6.89543 10.1121 8C10.1121 9.10457 11.0075 10 12.1121 10V6ZM44.7935 20.9126L46.7483 20.4898L44.7935 20.9126ZM29.9846 41.4448L28.0494 41.9498L29.9846 41.4448ZM14.0715 55.4007L21.1083 20.9868L17.1894 20.1855L10.1526 54.5993L14.0715 55.4007ZM22.5688 20.9477L28.0494 41.9498L31.9198 40.9398L26.4392 19.9377L22.5688 20.9477ZM37.3033 41.6819L41.3703 21.347L37.4479 20.5625L33.381 40.8975L37.3033 41.6819ZM42.8387 21.3355L49.6979 53.0416L53.6074 52.1958L46.7483 20.4898L42.8387 21.3355ZM54.8741 6H12.1121V10H54.8741V6ZM59.6241 51.9802V34H55.6241V51.9802H59.6241ZM59.6241 34V10.75H55.6241V34H59.6241ZM54.8741 10C55.2883 10 55.6241 10.3358 55.6241 10.75H59.6241C59.6241 8.12665 57.4974 6 54.8741 6V10ZM54.6042 57C57.3766 57 59.6241 54.7525 59.6241 51.9802H55.6241C55.6241 52.5434 55.1675 53 54.6042 53V57ZM49.6979 53.0416C50.1976 55.3515 52.2409 57 54.6042 57V53C54.1241 53 53.709 52.6651 53.6074 52.1958L49.6979 53.0416ZM41.3703 21.347C41.4219 21.0891 41.5286 20.9658 41.6222 20.8944C41.7345 20.8086 41.9018 20.7457 42.0998 20.7441C42.2979 20.7426 42.4661 20.8029 42.5798 20.8869C42.6745 20.9569 42.7831 21.0784 42.8387 21.3355L46.7483 20.4898C45.6592 15.4555 38.4581 15.5118 37.4479 20.5625L41.3703 21.347ZM28.0494 41.9498C29.3222 46.8271 36.3147 46.6247 37.3033 41.6819L33.381 40.8975C33.3311 41.1467 33.2277 41.2703 33.134 41.3437C33.0232 41.4305 32.86 41.4945 32.6672 41.5001C32.4744 41.5057 32.3078 41.4512 32.1921 41.3709C32.0944 41.3031 31.984 41.1857 31.9198 40.9398L28.0494 41.9498ZM21.1083 20.9868C21.159 20.7387 21.2626 20.6155 21.3566 20.5423C21.4677 20.4559 21.6307 20.3925 21.823 20.3873C22.0153 20.3822 22.1815 20.4368 22.297 20.5172C22.3948 20.5852 22.5048 20.7027 22.5688 20.9477L26.4392 19.9377C25.1692 15.0711 18.1969 15.2579 17.1894 20.1855L21.1083 20.9868Z" fill="#0AE4C3"/>
<rect y="6" width="8" height="8" rx="4" fill="#FD1056"/>
</svg>
