<svg width="80" height="75" viewBox="0 0 80 75" fill="none" xmlns="http://www.w3.org/2000/svg">
<path d="M7.03732 21C7.03732 19.7113 5.99265 18.6667 4.70398 18.6667C3.41532 18.6667 2.37065 19.7113 2.37065 21L7.03732 21ZM2.37065 64.1667C2.37065 65.4553 3.41532 66.5 4.70398 66.5C5.99265 66.5 7.03731 65.4553 7.03731 64.1667L2.37065 64.1667ZM2.37065 21L2.37065 64.1667L7.03731 64.1667L7.03732 21L2.37065 21Z" fill="#0AE4C3"/>
<path d="M11.8447 63.6993C11.5865 64.9618 12.4008 66.1946 13.6633 66.4527C14.9258 66.7109 16.1586 65.8967 16.4168 64.6341L11.8447 63.6993ZM14.1307 7.00004C12.8421 7.00004 11.7974 8.04471 11.7974 9.33337C11.7974 10.622 12.8421 11.6667 14.1307 11.6667V7.00004ZM60.2614 61.3885L57.9809 61.8819L60.2614 61.3885ZM52.2591 24.3981L49.9785 24.8915L52.2591 24.3981ZM22.3403 24.0172L20.0543 23.5498L22.3403 24.0172ZM16.4168 64.6341L24.6263 24.4847L20.0543 23.5498L11.8447 63.6993L16.4168 64.6341ZM26.3302 24.439L32.7243 48.9414L37.2398 47.7631L30.8457 23.2607L26.3302 24.439ZM43.5205 48.629L48.2653 24.9049L43.6893 23.9897L38.9445 47.7138L43.5205 48.629ZM49.9785 24.8915L57.9809 61.8819L62.542 60.8951L54.5397 23.9048L49.9785 24.8915ZM64.0197 7.00004H14.1307V11.6667H64.0197V7.00004ZM69.5614 60.6436V39.6667H64.8947V60.6436H69.5614ZM69.5614 39.6667V12.5417H64.8947V39.6667H69.5614ZM64.0197 11.6667C64.503 11.6667 64.8947 12.0585 64.8947 12.5417H69.5614C69.5614 9.48114 67.0803 7.00004 64.0197 7.00004V11.6667ZM63.7049 66.5C66.9394 66.5 69.5614 63.878 69.5614 60.6436H64.8947C64.8947 61.3007 64.362 61.8334 63.7049 61.8334V66.5ZM57.9809 61.8819C58.5639 64.5768 60.9477 66.5 63.7049 66.5V61.8334C63.1448 61.8334 62.6605 61.4426 62.542 60.8951L57.9809 61.8819ZM48.2653 24.9049C48.3255 24.604 48.45 24.4602 48.5592 24.3768C48.6903 24.2768 48.8854 24.2034 49.1165 24.2015C49.3475 24.1997 49.5438 24.2701 49.6764 24.3681C49.7869 24.4497 49.9136 24.5915 49.9785 24.8915L54.5397 23.9048C53.2691 18.0314 44.8678 18.0972 43.6893 23.9897L48.2653 24.9049ZM32.7243 48.9414C34.2092 54.6316 42.3672 54.3956 43.5205 48.629L38.9445 47.7138C38.8863 48.0045 38.7657 48.1487 38.6564 48.2343C38.5271 48.3356 38.3367 48.4103 38.1118 48.4168C37.8869 48.4233 37.6924 48.3597 37.5575 48.2661C37.4434 48.187 37.3147 48.05 37.2398 47.7631L32.7243 48.9414ZM24.6263 24.4847C24.6855 24.1952 24.8064 24.0515 24.9161 23.9661C25.0456 23.8653 25.2359 23.7913 25.4602 23.7853C25.6845 23.7793 25.8784 23.843 26.0132 23.9367C26.1272 24.0161 26.2556 24.1532 26.3302 24.439L30.8457 23.2607C29.3641 17.583 21.2298 17.8009 20.0543 23.5498L24.6263 24.4847Z" fill="#0AE4C3"/>
<rect y="7" width="9.33333" height="9.33333" rx="4.66667" fill="#FD1056"/>
</svg>
