<svg width="91" height="86" viewBox="0 0 91 86" fill="none" xmlns="http://www.w3.org/2000/svg">
<path d="M8.04265 24C8.04265 22.5272 6.84874 21.3333 5.37598 21.3333C3.90322 21.3333 2.70931 22.5272 2.70931 24L8.04265 24ZM2.70931 73.3333C2.70931 74.8061 3.90322 76 5.37598 76C6.84874 76 8.04265 74.8061 8.04265 73.3333L2.70931 73.3333ZM2.70931 24L2.70931 73.3333L8.04265 73.3333L8.04265 24L2.70931 24Z" fill="#0AE4C3"/>
<path d="M13.5368 72.7991C13.2418 74.242 14.1723 75.6509 15.6152 75.9459C17.0581 76.2409 18.467 75.3104 18.762 73.8675L13.5368 72.7991ZM16.1494 7.99996C14.6767 7.99996 13.4827 9.19387 13.4827 10.6666C13.4827 12.1394 14.6767 13.3333 16.1494 13.3333V7.99996ZM39.9795 55.2597L37.3993 55.933L39.9795 55.2597ZM25.5318 27.4482L22.9192 26.914L25.5318 27.4482ZM18.762 73.8675L28.1444 27.9824L22.9192 26.914L13.5368 72.7991L18.762 73.8675ZM30.0917 27.9302L37.3993 55.933L42.5598 54.5863L35.2522 26.5835L30.0917 27.9302ZM49.7377 55.5759L55.1604 28.4627L49.9306 27.4167L44.5079 54.5299L49.7377 55.5759ZM57.1183 28.4473L66.2638 70.7221L71.4766 69.5944L62.3311 27.3196L57.1183 28.4473ZM73.1654 7.99996H16.1494V13.3333H73.1654V7.99996ZM79.4987 69.3068V45.3333H74.1654V69.3068H79.4987ZM79.4987 45.3333V14.3333H74.1654V45.3333H79.4987ZM73.1654 13.3333C73.7177 13.3333 74.1654 13.781 74.1654 14.3333H79.4987C79.4987 10.8355 76.6632 7.99996 73.1654 7.99996V13.3333ZM72.8056 76C76.5021 76 79.4987 73.0034 79.4987 69.3068H74.1654C74.1654 70.0578 73.5566 70.6666 72.8056 70.6666V76ZM66.2638 70.7221C66.9301 73.802 69.6545 76 72.8056 76V70.6666C72.1654 70.6666 71.6119 70.2201 71.4766 69.5944L66.2638 70.7221ZM55.1604 28.4627C55.2291 28.1187 55.3714 27.9544 55.4962 27.8591C55.646 27.7448 55.869 27.6609 56.1331 27.6588C56.3972 27.6567 56.6215 27.7371 56.7731 27.8491C56.8993 27.9424 57.0442 28.1045 57.1183 28.4473L62.3311 27.3196C60.8789 20.6072 51.2775 20.6824 49.9306 27.4167L55.1604 28.4627ZM37.3993 55.933C39.0963 62.4361 48.4196 62.1663 49.7377 55.5759L44.5079 54.5299C44.4415 54.8622 44.3036 55.027 44.1787 55.1249C44.0309 55.2406 43.8133 55.326 43.5563 55.3334C43.2993 55.3408 43.0771 55.2682 42.9229 55.1612C42.7925 55.0708 42.6453 54.9142 42.5598 54.5863L37.3993 55.933ZM28.1444 27.9824C28.212 27.6516 28.3502 27.4873 28.4755 27.3897C28.6235 27.2745 28.841 27.1899 29.0973 27.1831C29.3537 27.1762 29.5753 27.249 29.7293 27.3562C29.8597 27.4468 30.0064 27.6035 30.0917 27.9302L35.2522 26.5835C33.5589 20.0948 24.2626 20.3438 22.9192 26.914L28.1444 27.9824Z" fill="#0AE4C3"/>
<rect y="8" width="10.6667" height="10.6667" rx="5.33333" fill="#FD1056"/>
</svg>
