<svg width="102" height="96" viewBox="0 0 102 96" fill="none" xmlns="http://www.w3.org/2000/svg">
<path d="M9.04798 27C9.04798 25.3431 7.70483 24 6.04798 24C4.39112 24 3.04798 25.3431 3.04798 27L9.04798 27ZM3.04798 82.5C3.04798 84.1569 4.39112 85.5 6.04798 85.5C7.70483 85.5 9.04798 84.1569 9.04798 82.5L3.04798 82.5ZM3.04798 27L3.04798 82.5L9.04798 82.5L9.04798 27L3.04798 27Z" fill="#0AE4C3"/>
<path d="M15.2289 81.899C14.897 83.5223 15.9438 85.1073 17.5671 85.4392C19.1904 85.7711 20.7754 84.7243 21.1073 83.101L15.2289 81.899ZM18.1681 9C16.5112 9 15.1681 10.3431 15.1681 12C15.1681 13.6569 16.5112 15 18.1681 15V9ZM77.479 78.928L74.5468 79.5624L74.5468 79.5624L77.479 78.928ZM67.1903 31.369L64.2581 32.0033L67.1903 31.369ZM21.1073 83.101L31.6624 31.4802L25.7841 30.2782L15.2289 81.899L21.1073 83.101ZM33.8532 31.4215L42.0742 62.9247L47.8797 61.4096L39.6587 29.9065L33.8532 31.4215ZM55.9549 62.5229L62.0554 32.0205L56.1719 30.8438L50.0714 61.3462L55.9549 62.5229ZM64.2581 32.0033L74.5468 79.5624L80.4112 78.2937L70.1225 30.7346L64.2581 32.0033ZM82.3111 9H18.1681V15H82.3111V9ZM89.4361 77.9702V51H83.4361V77.9702H89.4361ZM89.4361 51V16.125H83.4361V51H89.4361ZM82.3111 15C82.9324 15 83.4361 15.5037 83.4361 16.125H89.4361C89.4361 12.19 86.2461 9 82.3111 9V15ZM81.9063 85.5C86.0649 85.5 89.4361 82.1288 89.4361 77.9702H83.4361C83.4361 78.8151 82.7512 79.5 81.9063 79.5V85.5ZM74.5468 79.5624C75.2964 83.0272 78.3613 85.5 81.9063 85.5V79.5C81.1861 79.5 80.5634 78.9976 80.4112 78.2937L74.5468 79.5624ZM62.0554 32.0205C62.1328 31.6336 62.2929 31.4487 62.4332 31.3416C62.6018 31.2129 62.8526 31.1185 63.1497 31.1162C63.4468 31.1139 63.6992 31.2043 63.8697 31.3303C64.0117 31.4353 64.1747 31.6176 64.2581 32.0033L70.1225 30.7346C68.4888 23.1832 57.6871 23.2677 56.1719 30.8438L62.0554 32.0205ZM42.0742 62.9247C43.9833 70.2406 54.4721 69.9371 55.9549 62.5229L50.0714 61.3462C49.9967 61.72 49.8416 61.9055 49.7011 62.0155C49.5348 62.1457 49.29 62.2417 49.0008 62.2501C48.7117 62.2585 48.4617 62.1768 48.2882 62.0564C48.1416 61.9547 47.976 61.7785 47.8797 61.4096L42.0742 62.9247ZM31.6624 31.4802C31.7385 31.1081 31.8939 30.9232 32.0349 30.8135C32.2015 30.6839 32.4461 30.5887 32.7345 30.581C33.0229 30.5733 33.2722 30.6552 33.4455 30.7757C33.5922 30.8777 33.7573 31.054 33.8532 31.4215L39.6587 29.9065C37.7538 22.6067 27.2954 22.8868 25.7841 30.2782L31.6624 31.4802Z" fill="#0AE4C3"/>
<rect y="9" width="12" height="12" rx="6" fill="#FD1056"/>
</svg>
